<svg xmlns="http://www.w3.org/2000/svg" viewBox="0 185.79931178080002 396.12960870544845 573.68459123784" width="397" height="574">

  <g transform="translate(-70 108.333) matrix(1.01748 0 0 -0.970473 -804.175 724.785)" id="Bagmati pradesh" fill="#999999">
   <path  id="kasaragod"  d="m900,531.38c-0.14,0.43 -0.32,0.88 -0.41,1c-0.18,0.25 -1.38,3.36 -1.58,4.09c-0.08,0.29 -0.52,1.31 -0.96,2.26c-0.45,0.96 -0.82,1.86 -0.82,2.01c0,0.14 -0.14,0.44 -0.31,0.67c-0.16,0.22 -0.31,0.56 -0.31,0.75c0,0.18 -0.25,0.89 -0.54,1.57c-0.3,0.68 -0.77,1.75 -1.04,2.38c-0.28,0.64 -0.78,1.77 -1.12,2.52c-0.33,0.75 -0.92,2.26 -1.29,3.36c-0.37,1.09 -1.22,3.12 -1.88,4.51c-0.67,1.38 -1.42,3.17 -1.67,3.97c-0.26,0.81 -0.64,1.7 -0.84,2c-0.21,0.29 -0.43,0.77 -0.5,1.05c-0.22,0.91 -1.36,2.52 -1.79,2.52c-0.28,0 -0.58,0.41 -1.06,1.45c-0.37,0.8 -0.8,1.5 -0.96,1.56c-0.16,0.06 -0.77,1.09 -1.35,2.28c-0.58,1.18 -1.48,2.96 -1.99,3.94c-2,3.82 -3.29,6.7 -4.02,8.99c-0.42,1.31 -1.17,3.24 -1.68,4.28c-0.51,1.04 -0.98,2.23 -1.06,2.64c-0.08,0.41 -0.42,1.22 -0.77,1.81c-0.34,0.58 -0.9,1.76 -1.24,2.62c-0.33,0.87 -0.95,2.29 -1.36,3.15c-0.4,0.87 -1,2.25 -1.32,3.07c-0.32,0.83 -0.81,1.82 -1.1,2.21c-0.58,0.79 -1.22,2.26 -1.71,3.93c-0.35,1.18 -0.31,1.54 0.13,1.11c0.4,-0.41 1.38,-0.29 1.89,0.22c0.26,0.26 0.59,0.44 0.75,0.41c0.15,-0.04 0.73,0.22 1.28,0.57c0.55,0.36 1.14,0.65 1.33,0.65c0.57,0 0.99,0.24 0.99,0.56c0,0.24 0.16,0.28 0.66,0.16c0.36,-0.07 0.85,-0.04 1.1,0.08c0.24,0.13 0.79,0.31 1.22,0.42c0.64,0.17 0.83,0.14 1.12,-0.18c0.63,-0.7 1.45,-0.72 2.61,-0.06c0.58,0.32 1.05,0.73 1.05,0.9c0,0.21 0.21,0.32 0.61,0.32c0.57,0 0.59,-0.04 0.49,-0.78c-0.07,-0.52 0.01,-0.96 0.24,-1.31c0.43,-0.65 0.44,-1.16 0.02,-1.16c-0.17,0 -0.41,-0.21 -0.52,-0.47c-0.27,-0.66 -0.65,-1.1 -1.2,-1.39c-0.35,-0.19 -0.48,-0.44 -0.48,-0.98c0,-0.75 0.33,-0.95 0.79,-0.49c0.18,0.18 0.32,0.15 0.58,-0.1c0.19,-0.19 0.55,-0.35 0.8,-0.35c0.25,0 0.59,-0.09 0.76,-0.2c0.25,-0.16 0.21,-0.27 -0.26,-0.64c-0.87,-0.69 -0.74,-1.05 0.38,-1.05c0.61,0 0.99,0.11 1.06,0.29c0.07,0.17 0.31,0.24 0.62,0.18c0.29,-0.05 0.73,0.04 0.99,0.19c0.69,0.43 1.6,0.25 1.88,-0.36c0.13,-0.28 0.36,-0.51 0.52,-0.51c0.24,0 0.23,-0.11 -0.06,-0.59c-0.26,-0.45 -0.29,-0.7 -0.14,-0.99c0.18,-0.31 0.11,-0.43 -0.44,-0.71c-0.38,-0.19 -0.65,-0.48 -0.64,-0.69c0.01,-0.21 0.03,-0.74 0.05,-1.19c0.03,-0.75 0.11,-0.85 0.78,-1.07c0.42,-0.14 0.94,-0.2 1.17,-0.14c0.25,0.06 0.46,-0.01 0.53,-0.19c0.19,-0.48 0.9,-0.35 1.12,0.21c0.15,0.4 0.37,0.53 0.99,0.58c0.79,0.07 0.79,0.07 0.86,1.08c0.04,0.57 -0.03,1.29 -0.14,1.61c-0.21,0.59 -0.2,0.59 0.56,0.49c1.57,-0.21 1.61,-0.23 1.9,-1.22c0.26,-0.87 0.34,-0.95 0.95,-0.95c0.37,0 0.86,-0.14 1.08,-0.31c0.42,-0.32 1.98,-0.44 1.98,-0.16c0,0.08 0.25,0.27 0.54,0.4c0.44,0.2 0.56,0.2 0.65,-0.05c0.06,-0.16 0.06,-0.44 -0.01,-0.61c-0.09,-0.24 0.04,-0.32 0.53,-0.32c0.63,0 0.64,-0.01 0.31,-0.47c-0.18,-0.26 -0.54,-0.87 -0.79,-1.36c-0.26,-0.49 -0.59,-0.9 -0.75,-0.9c-0.5,0 -0.53,-0.59 -0.07,-1.24c0.24,-0.34 0.54,-0.91 0.67,-1.27c0.15,-0.43 0.4,-0.67 0.78,-0.75c0.3,-0.07 0.76,-0.16 1.02,-0.21c0.34,-0.07 0.7,0.13 1.33,0.76c0.47,0.47 0.96,0.81 1.1,0.75c0.14,-0.06 0.61,-0.22 1.05,-0.37c0.63,-0.2 0.78,-0.34 0.68,-0.64c-0.06,-0.21 -0.18,-0.57 -0.24,-0.79c-0.09,-0.28 0.04,-0.57 0.41,-0.92c0.67,-0.61 0.73,-1.5 0.13,-1.82c-0.6,-0.32 -0.52,-0.62 0.21,-0.76c0.35,-0.07 0.63,-0.24 0.63,-0.37c0,-0.13 0.24,-0.6 0.54,-1.04c0.54,-0.78 0.56,-0.8 1.73,-0.73c1.14,0.07 1.2,0.1 1.39,0.75c0.12,0.41 0.34,0.68 0.55,0.68c0.38,0 1.03,0.64 1.03,1.01c0,0.13 0.33,0.5 0.74,0.82c0.54,0.43 0.73,0.75 0.74,1.21c0,0.81 0.18,1.06 0.86,1.23c0.46,0.11 0.64,0.02 1.06,-0.55c0.29,-0.37 0.58,-0.84 0.65,-1.04c0.15,-0.4 0.68,-0.5 0.88,-0.16c0.25,0.4 0.7,0.21 0.91,-0.4c0.32,-0.91 1.12,-1.36 2.14,-1.2c1.04,0.17 1.06,-0.05 0.09,-1.02l-0.75,-0.75l-0.54,0.43c-0.38,0.29 -0.85,0.42 -1.57,0.42c-0.96,0 -1.05,-0.04 -1.25,-0.62c-0.18,-0.53 -0.28,-0.59 -0.61,-0.42c-0.6,0.32 -1.38,-0.52 -1.63,-1.77c-0.17,-0.82 -0.15,-1.09 0.09,-1.32c0.16,-0.17 0.29,-0.63 0.29,-1.04c0,-0.56 0.1,-0.76 0.42,-0.85c0.24,-0.06 0.42,-0.28 0.42,-0.53c0,-0.35 0.11,-0.4 0.67,-0.32c0.41,0.06 0.79,-0.01 0.96,-0.18c0.21,-0.21 0.39,-0.23 0.69,-0.07c0.36,0.19 0.41,0.14 0.41,-0.39c0,-0.34 0.06,-0.91 0.13,-1.27c0.1,-0.53 0.23,-0.65 0.66,-0.65c0.29,0 0.64,-0.17 0.79,-0.37c0.18,-0.25 0.52,-0.34 1.12,-0.32c0.76,0.03 0.86,-0.02 0.87,-0.43c0.01,-0.25 0.13,-0.68 0.28,-0.96c0.17,-0.29 0.25,-0.93 0.2,-1.6l-0.08,-1.11l1.42,0.06c1.67,0.07 2.1,0.22 2.27,0.76c0.07,0.22 0.32,0.5 0.55,0.63c0.43,0.23 0.46,0.82 0.08,1.71c-0.12,0.28 -0.06,0.37 0.28,0.37c0.23,0 0.6,0.17 0.81,0.39c0.37,0.4 1.94,0.72 1.94,0.4c0,-0.23 0.8,-0.2 1.27,0.05c0.35,0.18 0.48,0.11 0.83,-0.47c0.23,-0.38 0.42,-1.03 0.42,-1.45c0,-0.42 0.14,-0.88 0.31,-1.02c0.49,-0.41 0.38,-0.63 -0.31,-0.63c-0.52,0 -0.63,-0.09 -0.63,-0.48c0,-0.39 -0.2,-0.56 -1.07,-0.87c-1,-0.36 -1.09,-0.36 -1.27,-0.04c-0.12,0.2 -0.43,0.33 -0.76,0.31c-0.32,-0.01 -0.91,0.04 -1.32,0.12c-1.08,0.22 -1.28,-0.11 -1.03,-1.71c0.18,-1.07 0.14,-1.48 -0.2,-2.59l-0.41,-1.32l0.46,-0.48c0.86,-0.9 1.15,-1.29 1.29,-1.72c0.1,-0.32 0.35,-0.44 1,-0.49c0.66,-0.05 0.87,-0.16 0.92,-0.46c0.09,-0.63 0.57,-0.98 1.46,-1.06c0.46,-0.04 0.93,-0.08 1.07,-0.1c0.42,-0.03 0.51,-0.68 0.27,-1.85c-0.18,-0.89 -0.34,-1.17 -0.74,-1.32c-0.53,-0.2 -0.66,-0.51 -0.3,-0.72c0.11,-0.07 0.39,-0.74 0.62,-1.49c0.24,-0.78 0.68,-1.64 1.04,-2.02l0.62,-0.67l-0.46,-0.56c-0.25,-0.31 -0.56,-0.74 -0.69,-0.95c-0.19,-0.33 -0.28,-0.35 -0.55,-0.13c-0.2,0.17 -0.65,0.22 -1.22,0.15c-0.53,-0.06 -0.96,-0.02 -1.04,0.11c-0.18,0.29 -0.84,0.03 -0.84,-0.33c0,-0.53 -0.66,-0.98 -1.29,-0.85c-0.75,0.15 -1.22,-0.03 -1.23,-0.47c0,-0.21 -0.42,-0.54 -1.05,-0.82c-0.57,-0.27 -1.04,-0.55 -1.04,-0.64c0,-0.34 -1.96,-0.09 -2.23,0.28c-0.24,0.33 -0.41,0.34 -1.97,0.1c-0.93,-0.15 -1.81,-0.37 -1.96,-0.5c-0.14,-0.13 -0.44,-0.34 -0.67,-0.47c-0.45,-0.26 -0.5,-1.1 -0.15,-2.39c0.25,-0.91 0.14,-1.26 -0.39,-1.26c-0.54,0 -3.11,-1.01 -3.55,-1.39c-0.41,-0.35 -1.74,-0.37 -2.28,-0.04c-0.53,0.34 -1.41,-0.24 -1.81,-1.2c-0.17,-0.39 -0.58,-0.86 -0.92,-1.03c-0.34,-0.18 -0.75,-0.52 -0.93,-0.77c-0.24,-0.34 -0.44,-0.41 -0.86,-0.3c-0.63,0.15 -2.99,-0.25 -3.17,-0.55c-0.18,-0.29 0.51,-1.6 0.97,-1.85c0.23,-0.12 0.41,-0.34 0.42,-0.48c0,-0.14 0.13,-0.52 0.3,-0.84c0.18,-0.34 0.26,-0.84 0.19,-1.19c-0.09,-0.45 -0.01,-0.69 0.32,-0.98c0.59,-0.5 0.56,-1 -0.08,-1.42c-0.62,-0.4 -0.67,-0.77 -0.16,-1.23c0.3,-0.26 0.35,-0.6 0.3,-1.71c-0.08,-1.52 -0.31,-1.7 -1.28,-1.03c-0.48,0.34 -0.52,0.33 -0.95,-0.21c-0.24,-0.3 -0.5,-0.56 -0.58,-0.56c-0.07,0 -0.24,0.36 -0.38,0.79z"/>
   <path  id="malappuram"  d="m993.84,364.73c-0.17,0.38 -0.69,1.67 -1.15,2.86c-0.49,1.28 -1.21,2.67 -1.73,3.36c-0.95,1.26 -1.55,2.64 -1.85,4.3c-0.11,0.56 -0.33,1.46 -0.5,1.99c-0.17,0.54 -0.3,1.35 -0.29,1.81c0.02,0.51 -0.32,1.82 -0.86,3.31c-0.53,1.49 -0.96,3.13 -1.07,4.11c-0.1,0.89 -0.51,2.75 -0.9,4.13c-0.4,1.38 -0.93,3.45 -1.19,4.6c-0.26,1.16 -0.55,2.38 -0.65,2.73c-0.09,0.35 -0.23,1.24 -0.3,1.99c-0.07,0.75 -0.31,1.98 -0.53,2.73c-0.22,0.75 -0.58,2.07 -0.81,2.94c-0.22,0.86 -0.64,2.28 -0.94,3.14c-0.29,0.87 -0.92,2.75 -1.39,4.2c-0.48,1.44 -0.91,2.76 -0.97,2.93c-0.14,0.44 2.24,1.93 2.66,1.66c0.16,-0.1 0.51,-0.18 0.77,-0.19c0.36,0 0.47,0.12 0.47,0.54c0,0.3 -0.1,0.72 -0.22,0.95c-0.17,0.31 -0.15,0.43 0.1,0.53c0.19,0.07 0.33,0.38 0.33,0.74c0,0.74 0.42,0.94 1.25,0.6c0.62,-0.26 0.65,-0.25 2.07,0.75c0.03,0.02 0,0.38 -0.08,0.8c-0.12,0.66 -0.22,0.75 -0.75,0.75c-0.33,0 -0.6,0.08 -0.6,0.17c0,0.1 -0.4,0.26 -0.9,0.37c-0.83,0.19 -0.89,0.25 -0.95,0.98c-0.05,0.56 0.02,0.79 0.22,0.79c0.32,0 1.84,1.48 1.84,1.79c0,0.27 1.01,0.73 1.6,0.73c0.53,0 1.15,0.74 0.98,1.18c-0.13,0.34 0.17,0.38 0.49,0.06c0.38,-0.37 1.78,-0.14 2.04,0.33c0.36,0.65 0.51,0.7 2.49,0.86c1.59,0.12 1.88,0.2 2.08,0.58c0.28,0.56 1.45,1.81 1.69,1.81c0.1,0 0.66,-0.47 1.26,-1.05c1.13,-1.1 1.48,-1.2 1.59,-0.46c0.05,0.37 0.17,0.43 0.66,0.33c0.49,-0.1 0.67,-0.02 0.97,0.45c0.36,0.55 0.42,0.56 2.07,0.49c1.69,-0.07 1.71,-0.07 2.55,0.66c0.47,0.41 0.91,0.9 0.98,1.11c0.08,0.2 0.42,0.42 0.76,0.49c0.51,0.1 0.64,0.25 0.69,0.77c0.05,0.49 0.24,0.73 0.85,1.04c0.43,0.23 0.79,0.56 0.79,0.75c0,0.26 0.19,0.36 0.72,0.37c0.71,0.01 2.23,0.39 2.84,0.71c0.33,0.17 0.37,0.99 0.1,2.26c-0.13,0.6 -0.25,0.7 -0.97,0.82c-0.92,0.14 -1.85,1.07 -1.85,1.83c0,0.26 0.23,0.7 0.52,0.97c0.55,0.52 0.67,1.23 0.31,1.89c-0.3,0.57 0.19,2.09 0.68,2.09c0.26,0 0.37,0.17 0.37,0.53c0,0.39 0.11,0.52 0.43,0.52c0.25,0 0.81,0.41 1.29,0.94c0.82,0.9 0.86,0.92 1.36,0.6c0.4,-0.27 0.61,-0.29 1.03,-0.1c0.43,0.2 0.49,0.33 0.38,0.81c-0.08,0.32 -0.27,0.73 -0.43,0.92c-0.52,0.6 -0.29,1.87 0.34,1.87c0.2,0 0.62,0.19 0.92,0.43c0.31,0.24 0.56,0.38 0.56,0.31c0,-0.07 0.18,-0.03 0.42,0.1c0.23,0.12 0.41,0.36 0.41,0.52c0,0.35 1.46,1.15 2.1,1.15c0.56,0 0.75,0.52 0.45,1.18c-0.19,0.42 -0.16,0.67 0.16,1.3c0.7,1.37 2.21,2.24 3.43,2c0.66,-0.14 1.21,0.22 1.21,0.78c0,0.57 0.45,1.48 0.7,1.4c0.11,-0.04 0.31,-0.26 0.43,-0.48c0.12,-0.23 0.37,-0.65 0.56,-0.93c0.5,-0.77 0.59,-1.78 0.27,-3.23c-0.54,-2.53 -0.26,-2.9 1.29,-1.71c0.91,0.69 1.03,0.73 1.35,0.44c0.46,-0.42 0.74,-0.41 1.39,0.02c0.48,0.31 0.57,0.31 0.85,0.03c0.17,-0.17 0.35,-0.57 0.38,-0.89c0.1,-0.86 0.4,-1.06 1.15,-0.75c0.6,0.25 0.69,0.22 1.67,-0.6c1.13,-0.95 1.78,-1.09 2.12,-0.45c0.12,0.23 0.52,0.57 0.88,0.76c0.63,0.33 0.71,0.32 1.93,-0.25c0.71,-0.32 1.56,-0.79 1.91,-1.04c0.35,-0.25 1.01,-0.65 1.48,-0.89c0.47,-0.24 0.98,-0.58 1.13,-0.76c0.34,-0.41 1.41,-0.42 2.11,-0.02c0.77,0.44 0.83,0.4 0.6,-0.44c-0.26,-0.93 -0.1,-1.67 0.39,-1.82c0.21,-0.05 1.39,-0.92 2.63,-1.91l2.25,-1.8l3.08,-0.85c1.69,-0.47 3.16,-0.9 3.25,-0.96c0.27,-0.17 0.21,-0.78 -0.14,-1.27c-0.43,-0.62 -0.1,-0.71 1.76,-0.48c0.82,0.1 1.62,0.14 1.77,0.08c0.39,-0.15 0.67,-3.51 0.31,-3.63c-0.52,-0.18 -1.22,-1.08 -1.22,-1.57c0,-0.28 0.24,-0.73 0.52,-1c0.29,-0.27 0.53,-0.57 0.53,-0.65c0,-0.09 -0.34,-0.3 -0.75,-0.47c-0.41,-0.17 -0.69,-0.4 -0.63,-0.5c0.06,-0.11 -0.03,-0.18 -0.2,-0.16c-0.36,0.03 -0.85,-0.73 -1.03,-1.6c-0.08,-0.39 -0.26,-0.58 -0.52,-0.58c-0.54,0 -1.08,-0.22 -0.97,-0.39c0.05,-0.08 -0.07,-0.16 -0.27,-0.18c-1.21,-0.1 -2.47,-0.63 -3.22,-1.36c-0.46,-0.44 -0.93,-0.79 -1.04,-0.79c-0.11,0 -0.16,-0.08 -0.11,-0.16c0.06,-0.09 -0.1,-0.17 -0.35,-0.19c-0.25,-0.01 -0.79,-0.17 -1.21,-0.34l-0.75,-0.32l-0.15,-1.95c-0.08,-1.08 -0.19,-2 -0.23,-2.05c-0.05,-0.04 -0.47,-0.09 -0.93,-0.1c-0.58,-0.02 -0.92,0.09 -1.11,0.35c-0.23,0.31 -0.53,0.36 -1.74,0.31l-1.46,-0.06l0.07,-1.01c0.04,-0.56 -0.04,-1.13 -0.18,-1.3c-0.19,-0.23 -0.12,-0.5 0.32,-1.25c0.47,-0.8 0.54,-1.12 0.44,-1.95c-0.16,-1.34 -0.13,-1.74 0.33,-4.91c0.05,-0.37 -0.11,-0.49 -0.98,-0.74c-1.04,-0.29 -2,-1.08 -2,-1.63c0,-0.22 -0.28,-0.26 -1.27,-0.17c-1.08,0.1 -1.36,0.05 -1.88,-0.33c-0.33,-0.25 -0.73,-0.45 -0.89,-0.45c-0.32,0 -1.24,-0.93 -1.59,-1.61c-0.13,-0.25 -0.45,-0.49 -0.71,-0.53c-0.37,-0.05 -0.46,-0.18 -0.41,-0.59c0.24,-1.81 0.05,-2.09 -1.36,-2.09c-0.49,-0.01 -0.94,-0.1 -1.01,-0.22c-0.07,-0.11 -0.5,-0.21 -0.95,-0.21c-0.87,0 -1.45,-0.54 -1.52,-1.42c-0.01,-0.23 -0.14,-0.37 -0.28,-0.32c-0.36,0.14 -0.55,-0.28 -0.31,-0.71c0.11,-0.21 0.25,-0.54 0.31,-0.75c0.11,-0.34 0.18,-0.34 1.22,0.06c1.37,0.52 2.02,0.52 2.63,0.01c0.34,-0.28 0.47,-0.62 0.48,-1.2c0.01,-1.04 0.1,-1.15 1.42,-1.62c0.88,-0.31 1.42,-0.36 2.55,-0.25c0.79,0.08 1.48,0.07 1.54,-0.03c0.06,-0.09 -0.14,-0.7 -0.45,-1.34c-0.56,-1.17 -0.56,-1.17 -1.4,-1.09c-0.46,0.05 -1.15,0.24 -1.53,0.43c-0.51,0.25 -0.83,0.29 -1.25,0.14c-0.53,-0.19 -0.57,-0.28 -0.57,-1.52c0,-1.14 -0.07,-1.39 -0.5,-1.73c-0.44,-0.36 -0.47,-0.5 -0.34,-1.5c0.12,-0.9 0.29,-1.25 0.92,-1.86c0.43,-0.41 0.74,-0.86 0.69,-1c-0.04,-0.14 0.03,-0.39 0.17,-0.55c0.31,-0.38 0.1,-0.74 -0.44,-0.74c-0.25,0 -0.49,0.22 -0.62,0.56c-0.19,0.5 -0.28,0.54 -1.15,0.44c-0.77,-0.09 -0.99,-0.03 -1.15,0.27c-0.31,0.57 -1.01,0.72 -1.46,0.31c-0.3,-0.27 -0.6,-0.32 -1.35,-0.2c-1.49,0.22 -1.97,0.02 -2.13,-0.91c-0.08,-0.43 -0.26,-0.92 -0.41,-1.09c-0.14,-0.18 -0.41,-0.63 -0.6,-1c-0.31,-0.61 -0.44,-0.68 -1.27,-0.68c-0.83,0 -0.99,0.08 -1.6,0.85c-0.37,0.47 -0.73,1.16 -0.81,1.52c-0.1,0.51 -0.26,0.68 -0.66,0.73c-0.66,0.08 -1.66,-0.68 -1.66,-1.24c0,-0.36 -0.12,-0.41 -0.89,-0.35c-0.77,0.05 -0.9,0.13 -0.96,0.58c-0.1,0.74 -0.34,0.92 -0.86,0.64c-0.38,-0.2 -0.51,-0.15 -0.91,0.3c-0.47,0.54 -0.47,0.54 -1.1,0.15c-0.44,-0.27 -0.72,-0.68 -0.92,-1.37c-0.37,-1.29 -0.94,-1.62 -1.52,-0.88c-0.23,0.29 -0.54,0.54 -0.69,0.54c-0.45,0 -1.17,-0.95 -1.17,-1.54c0,-0.62 -0.3,-0.71 -1.14,-0.32c-0.68,0.31 -1.17,-0.06 -1.17,-0.9c0,-0.53 -0.06,-0.59 -0.47,-0.49c-0.47,0.12 -0.47,0.09 -0.4,-1.56l0.08,-1.67l-0.81,-0.17c-0.45,-0.09 -1.52,-0.17 -2.38,-0.17c-1.29,0 -1.69,0.08 -2.2,0.46c-0.35,0.25 -0.89,0.52 -1.19,0.6c-0.67,0.15 -1.1,-0.38 -1.32,-1.65c-0.1,-0.58 -0.28,-0.85 -0.65,-0.99c-0.63,-0.24 -0.68,-0.94 -0.1,-1.3c0.23,-0.15 0.42,-0.48 0.42,-0.73c0,-0.34 0.21,-0.56 0.74,-0.78c0.83,-0.35 0.92,-0.63 0.31,-0.96c-0.38,-0.2 -0.42,-0.44 -0.42,-2.51c0,-2.1 0.04,-2.32 0.45,-2.6c0.29,-0.21 0.41,-0.46 0.34,-0.73c-0.19,-0.71 0.17,-0.98 1.25,-0.94c0.58,0.02 1.06,-0.06 1.15,-0.21c0.23,-0.35 0.21,-1.19 -0.03,-1.19c-0.11,0 -0.5,-0.57 -0.87,-1.27c-0.51,-0.96 -0.76,-1.23 -1.01,-1.12c-0.89,0.37 -1.24,0.33 -1.59,-0.2c-0.2,-0.3 -0.76,-0.67 -1.31,-0.86c-0.53,-0.18 -1.12,-0.47 -1.32,-0.64c-0.32,-0.29 -0.38,-0.29 -0.62,-0.01c-0.35,0.43 -1.96,0.43 -2.31,0.01c-0.34,-0.41 -0.63,-0.4 -0.63,0.01c0,0.27 -0.17,0.31 -1,0.19c-0.54,-0.08 -1.2,-0.27 -1.46,-0.44c-0.45,-0.28 -0.5,-0.25 -0.79,0.39l0.01,0z"/>
   <path  id="Idukki"  d="m1150.65,196.67c-0.21,0.24 -0.55,0.43 -0.77,0.43c-0.21,0 -0.38,0.08 -0.38,0.19c0,0.11 -0.31,0.26 -0.69,0.34c-0.37,0.08 -0.88,0.32 -1.12,0.55c-0.52,0.47 -1.13,0.32 -1.13,-0.28c0,-0.59 -0.51,-0.36 -0.6,0.26c-0.09,0.67 -0.41,1.04 -0.89,1.04c-0.33,0 -0.4,0.16 -0.4,0.98c0,0.82 0.11,1.1 0.66,1.67c0.58,0.6 0.63,0.73 0.38,1.03c-0.25,0.3 -0.24,0.38 0.05,0.59c0.26,0.19 0.31,0.48 0.23,1.21c-0.07,0.6 -0.02,1.02 0.13,1.11c0.12,0.08 0.23,0.41 0.23,0.74c0,0.34 0.23,0.88 0.52,1.23c0.29,0.34 0.53,0.86 0.53,1.16c0,0.5 -1.03,2.28 -1.48,2.55c-0.28,0.17 -0.83,1.52 -0.83,2.03c0,0.3 -0.1,0.37 -0.4,0.28c-0.5,-0.16 -0.77,0.52 -0.45,1.12c0.34,0.64 0.27,0.87 -0.26,0.87c-0.61,0 -0.99,0.36 -0.99,0.96c0,0.57 -0.87,0.96 -2.02,0.9c-1.1,-0.07 -1.33,0.1 -1.2,0.92c0.07,0.42 -0.01,0.83 -0.21,1.1c-0.31,0.41 -0.31,0.41 -0.96,-0.06c-0.51,-0.39 -0.73,-0.44 -1.06,-0.26c-0.23,0.12 -0.42,0.32 -0.42,0.43c0,0.61 -1.98,-0.15 -2.2,-0.85c-0.17,-0.51 -1.43,-0.58 -2.34,-0.12c-2.18,1.09 -2.09,1.06 -2.67,0.69c-0.29,-0.2 -0.67,-0.3 -0.84,-0.24c-0.17,0.07 -0.48,-0.05 -0.7,-0.27c-0.22,-0.21 -0.72,-0.52 -1.12,-0.68c-0.97,-0.39 -2.57,-1.3 -2.76,-1.57c-0.26,-0.37 -0.18,-1.7 0.15,-2.5c0.32,-0.76 0.32,-0.76 -0.21,-0.76c-0.29,0 -0.69,-0.09 -0.89,-0.19c-1.74,-0.92 -2.16,-1.05 -3.14,-0.93c-0.96,0.11 -1,0.15 -1.02,0.77c-0.01,0.37 -0.08,0.83 -0.18,1.03c-0.12,0.27 -0.07,0.37 0.18,0.37c0.19,0 0.44,0.21 0.56,0.47c0.29,0.64 -0.08,1.62 -0.6,1.62c-0.22,0 -0.58,0.18 -0.81,0.4c-0.24,0.22 -0.81,0.46 -1.29,0.54c-0.47,0.08 -1.11,0.38 -1.42,0.67l-0.56,0.52l0.44,0.47c0.94,1 0.25,3.37 -1.29,4.42c-1,0.67 -1.37,0.68 -1.62,0.02c-0.27,-0.72 -1.02,-1.43 -1.37,-1.29c-0.16,0.06 -0.43,0.44 -0.61,0.85c-0.31,0.76 -0.68,0.91 -1.35,0.55c-0.43,-0.23 -0.65,-0.11 -1.14,0.67c-0.2,0.31 -0.47,0.57 -0.6,0.57c-0.47,0 -1.2,1.06 -1.26,1.84c-0.07,0.76 -0.09,0.79 -0.96,0.85l-0.89,0.07l0,1.1c0,0.61 -0.07,1.17 -0.15,1.26c-0.08,0.08 -0.15,0.75 -0.16,1.5c-0.01,1.12 0.04,1.35 0.33,1.35c0.85,0 0.93,1.17 0.27,4.04c-0.08,0.37 -0.04,0.58 0.1,0.58c0.13,0 0.24,0.23 0.24,0.52c0,0.29 0.17,0.61 0.4,0.73c0.57,0.3 0.63,0.28 0.85,-0.29c0.29,-0.77 2.36,-2.06 3.03,-1.89c0.4,0.1 0.54,0.27 0.54,0.66c0,0.57 -0.72,1.89 -1.25,2.3c-0.26,0.2 -0.27,0.3 -0.06,0.51c0.15,0.15 0.26,0.41 0.26,0.57c0,0.55 -1.14,2.59 -1.73,3.09c-0.31,0.26 -0.57,0.54 -0.57,0.61c0,0.17 -0.77,1.94 -1.14,2.63c-0.16,0.29 -0.35,0.83 -0.43,1.21c-0.16,0.73 -0.68,1.18 -1.65,1.42c-0.32,0.08 -0.79,0.42 -1.04,0.77c-0.37,0.49 -0.58,0.59 -1.01,0.5c-0.73,-0.14 -1.1,0.17 -1.76,1.49c-0.35,0.71 -0.84,1.29 -1.41,1.68c-0.59,0.39 -0.93,0.81 -1.05,1.26c-0.09,0.38 -0.25,0.69 -0.34,0.69c-0.09,0 -0.86,0.66 -1.71,1.48c-1.53,1.47 -3.36,2.5 -4.44,2.5c-0.25,0 -0.66,0.19 -0.9,0.42c-1.04,0.97 -2.58,0.61 -2.29,-0.54c0.17,-0.69 -0.42,-0.68 -0.88,0.02c-0.27,0.41 -0.52,0.52 -1.17,0.52c-0.53,0 -0.86,0.11 -0.94,0.31c-0.06,0.17 -0.62,0.54 -1.22,0.83c-0.7,0.33 -1.16,0.69 -1.23,0.97c-0.1,0.37 -0.22,0.43 -0.74,0.31c-0.5,-0.11 -0.68,-0.05 -0.84,0.26c-0.12,0.21 -0.6,0.56 -1.06,0.77c-0.79,0.36 -0.88,0.36 -1.37,0.04c-0.7,-0.46 -1.32,-0.43 -2.74,0.11c-1.3,0.5 -1.57,0.83 -1.13,1.37c0.16,0.19 0.3,0.73 0.32,1.2c0.02,0.47 0.1,1.12 0.18,1.45c0.13,0.47 0.07,0.65 -0.28,0.9c-0.38,0.26 -0.43,0.46 -0.33,1.3c0.25,2.21 0.26,2.25 0.99,2.51c0.97,0.35 1.26,0.32 1.91,-0.19c0.48,-0.37 0.66,-0.41 1.09,-0.21c0.86,0.39 1.53,0.29 1.79,-0.27c0.28,-0.62 1.17,-0.83 1.8,-0.42c0.65,0.42 0.6,0.85 -0.17,1.57c-0.69,0.64 -0.65,1.08 0.09,1.02c0.87,-0.07 1.18,0.02 1.18,0.32c0,0.16 0.26,0.43 0.58,0.58c0.44,0.21 0.58,0.43 0.58,0.9c0.01,0.53 0.1,0.64 0.59,0.69c0.8,0.1 0.96,0.64 0.35,1.13c-0.51,0.42 -1.05,1.3 -1.05,1.73c0,0.13 0.14,0.43 0.3,0.65c0.28,0.39 0.31,0.39 0.7,0.04c0.38,-0.34 1.1,-0.32 1.1,0.04c0,0.08 0.47,0.27 1.04,0.41c1.16,0.3 2.39,0.06 2.61,-0.51c0.13,-0.35 0.67,-0.4 0.87,-0.08c0.07,0.12 0.02,0.36 -0.13,0.53c-0.2,0.24 -0.2,0.43 -0.02,0.84c0.31,0.66 0.31,1.4 0.01,1.7c-0.29,0.29 -0.11,0.86 0.5,1.54c0.26,0.3 0.57,0.72 0.7,0.95c0.24,0.42 1.34,0.69 1.34,0.33c0,-0.11 0.3,-0.27 0.65,-0.35c0.36,-0.08 0.82,-0.31 1.03,-0.52c0.82,-0.81 2.28,-1.51 2.9,-1.37c0.63,0.14 1.61,1.24 1.4,1.58c-0.07,0.11 -0.5,0.31 -0.95,0.45c-0.46,0.14 -0.94,0.37 -1.07,0.53c-0.13,0.15 -0.5,0.28 -0.84,0.28c-0.37,0 -0.6,0.11 -0.6,0.29c0,0.32 -0.44,0.55 -1.08,0.55c-0.77,0 -1.61,0.59 -1.75,1.25c-0.08,0.35 -0.23,0.69 -0.33,0.75c-0.46,0.29 -0.13,0.52 0.75,0.52c0.88,0 0.94,-0.04 0.94,-0.55c0,-0.5 0.06,-0.54 0.68,-0.45c0.38,0.06 1.02,0.22 1.42,0.37c0.4,0.15 0.87,0.31 1.03,0.35c0.21,0.06 0.11,0.27 -0.37,0.76c-0.69,0.72 -0.86,1.54 -0.41,1.99c0.39,0.39 0.64,0.32 2.77,-0.72c1.11,-0.54 2.13,-0.92 2.31,-0.85c0.2,0.08 0.33,0.38 0.33,0.73c0,0.91 1.2,3.16 2.34,4.38c0.56,0.6 1.02,1.23 1.02,1.41c0,0.17 0.33,0.57 0.73,0.87c0.41,0.31 0.74,0.69 0.74,0.85c0,0.16 0.09,0.29 0.21,0.29c0.11,0 0.21,0.26 0.21,0.58c0,0.62 0.48,1.48 1.22,2.16c0.25,0.24 0.45,0.61 0.45,0.84c0,0.53 0.46,0.52 0.95,-0.01c0.27,-0.31 0.64,-0.42 1.37,-0.42c0.6,0 1.09,-0.12 1.24,-0.3c0.14,-0.17 0.52,-0.36 0.86,-0.44c0.34,-0.07 0.62,-0.22 0.62,-0.33c0,-0.32 1.13,-0.21 1.66,0.16c0.46,0.32 0.51,0.32 0.75,0c0.48,-0.65 2.2,-0.18 2.2,0.61c0,0.17 0.2,0.3 0.48,0.3c0.26,0 0.69,0.15 0.96,0.34c0.44,0.31 0.51,0.3 0.88,-0.03c0.43,-0.39 0.83,-0.36 2.82,0.19c1.03,0.28 1.05,0.28 1.22,-0.21c0.19,-0.53 0.65,-0.66 0.89,-0.26c0.1,0.15 0.51,0.19 1.14,0.11c1.19,-0.14 1.89,0.25 1.89,1.05c0,0.7 -1.58,2.38 -2.24,2.38c-0.4,0 -0.49,0.11 -0.49,0.6c0,0.52 -0.09,0.62 -0.64,0.7c-0.39,0.06 -0.93,-0.06 -1.36,-0.29c-0.91,-0.48 -1.01,-0.48 -2.19,0.05c-0.68,0.31 -1.06,0.64 -1.26,1.11c-0.15,0.36 -0.32,0.71 -0.35,0.77c-0.12,0.19 1.77,0.62 2.73,0.62c2.46,0 3.39,1.35 2.03,2.95c-0.44,0.52 -0.62,0.95 -0.63,1.52c-0.01,0.43 -0.16,1.02 -0.34,1.31c-0.33,0.49 -0.32,0.51 0.09,0.51c0.24,0 0.65,0.24 0.92,0.52c0.79,0.85 3.6,2.62 3.82,2.4c0.35,-0.34 0.99,-0.2 1.11,0.23c0.09,0.35 0.28,0.42 1.15,0.42c0.97,0 1.13,0.08 1.97,0.93c0.53,0.53 1.25,1.03 1.68,1.15c0.48,0.13 1.3,0.72 2.21,1.6c1.2,1.16 1.52,1.37 1.91,1.24c0.26,-0.08 1.79,-0.19 3.41,-0.23c1.61,-0.04 3.05,-0.12 3.2,-0.18c0.54,-0.2 0.17,-1.87 -0.51,-2.27c-0.64,-0.38 0.03,-3.84 0.89,-4.56c0.17,-0.14 0.46,-0.59 0.66,-1c0.19,-0.41 0.76,-1.12 1.25,-1.59c0.99,-0.93 1.05,-1.08 0.61,-1.58c-0.21,-0.24 -0.26,-0.74 -0.18,-1.95c0.12,-1.7 0.26,-1.89 1.01,-1.32c0.23,0.17 0.85,0.31 1.39,0.31c0.81,0.01 1.06,-0.08 1.41,-0.53c0.75,-0.96 0.76,-1.35 0.04,-2.02c-0.46,-0.43 -0.65,-0.8 -0.65,-1.27c0,-0.43 -0.2,-0.86 -0.56,-1.24c-0.54,-0.56 -0.58,-0.75 -0.73,-3.42c-0.11,-1.71 -0.09,-3.03 0.03,-3.35c0.16,-0.42 0.12,-0.58 -0.2,-0.8c-0.48,-0.34 -1.89,-0.22 -1.89,0.16c0,0.23 -1.02,0.52 -1.85,0.52c-0.15,0 -0.46,-0.32 -0.7,-0.73c-0.24,-0.4 -0.59,-0.73 -0.79,-0.73c-0.2,0 -0.47,-0.11 -0.6,-0.25c-0.19,-0.19 -0.38,-0.18 -0.8,0.05c-0.52,0.27 -0.58,0.25 -1.16,-0.44c-0.58,-0.69 -0.6,-0.8 -0.47,-2.09c0.14,-1.41 0.34,-1.72 1.33,-2.11c0.29,-0.12 0.67,-0.51 0.84,-0.89c0.19,-0.41 0.5,-0.7 0.79,-0.74c0.26,-0.03 0.47,-0.14 0.47,-0.23c0,-0.1 0.61,-0.82 1.35,-1.62c1.98,-2.09 2.02,-2.14 2.26,-2.85c0.21,-0.58 0.17,-0.68 -0.33,-1.05c-0.75,-0.54 -0.71,-1.12 0.11,-1.54c0.61,-0.31 0.64,-0.37 0.32,-0.61c-0.48,-0.35 -0.45,-0.88 0.06,-1.15c0.24,-0.13 0.42,-0.39 0.42,-0.59c0,-0.2 0.14,-0.56 0.3,-0.8c0.17,-0.23 0.33,-0.75 0.37,-1.14c0.06,-0.61 -0.03,-0.79 -0.56,-1.13c-0.35,-0.22 -0.91,-0.41 -1.26,-0.42c-0.5,-0.01 -0.69,-0.16 -0.98,-0.77c-0.19,-0.41 -0.59,-0.9 -0.87,-1.09c-0.28,-0.18 -0.57,-0.58 -0.65,-0.89c-0.08,-0.31 -0.28,-0.7 -0.45,-0.87c-0.16,-0.17 -0.3,-0.58 -0.3,-0.92c0,-0.46 -0.1,-0.61 -0.39,-0.61c-0.67,0 -0.9,-0.52 -0.84,-1.84c0.05,-0.92 -0.03,-1.39 -0.32,-1.83c-0.38,-0.57 -0.38,-0.6 0.07,-1.49c0.42,-0.85 0.5,-0.91 1.44,-0.97c0.9,-0.05 0.99,-0.11 1.05,-0.64c0.05,-0.44 -0.02,-0.57 -0.33,-0.57c-0.83,0 -1.2,-0.53 -1.21,-1.72c0,-0.61 -0.08,-1.28 -0.18,-1.48c-0.13,-0.27 -0.08,-0.37 0.15,-0.37c0.17,0 0.58,-0.14 0.91,-0.3c0.33,-0.17 0.75,-0.35 0.95,-0.41c0.2,-0.06 0.41,-0.42 0.49,-0.83c0.17,-0.9 -0.55,-2.03 -1.29,-2.03c-0.85,0 -1.13,-0.22 -1.13,-0.91c0,-0.37 0.15,-0.88 0.33,-1.13c0.39,-0.57 0.22,-1.8 -0.36,-2.55c-0.42,-0.54 -0.52,-1.38 -0.18,-1.59c0.12,-0.07 0.21,-0.32 0.21,-0.54c0,-0.41 -0.27,-0.57 -1.56,-0.96c-0.57,-0.17 -0.64,-0.29 -0.85,-1.58c-0.17,-1.04 -0.17,-1.49 0.01,-1.73c0.19,-0.26 0.12,-0.59 -0.34,-1.54c-0.32,-0.66 -0.78,-1.32 -1.02,-1.47c-0.24,-0.14 -0.43,-0.39 -0.43,-0.55c0,-0.16 -0.24,-0.45 -0.54,-0.64c-0.44,-0.29 -0.52,-0.49 -0.48,-1.2c0.04,-0.61 -0.05,-0.9 -0.3,-1.04c-0.25,-0.14 -0.36,-0.47 -0.36,-1.02c0,-0.6 -0.15,-0.97 -0.53,-1.35c-0.55,-0.56 -0.69,-1.46 -0.26,-1.73c0.15,-0.09 0.59,-0.18 1,-0.2c0.4,-0.02 1.03,-0.11 1.38,-0.18c0.55,-0.12 0.78,-0.04 1.44,0.54c0.77,0.67 0.8,0.68 1.09,0.29c0.18,-0.25 0.25,-0.63 0.17,-0.99c-0.12,-0.53 -0.08,-0.58 0.52,-0.58c0.4,0 0.64,-0.1 0.64,-0.29c0,-0.16 0.16,-0.42 0.35,-0.57c0.19,-0.16 0.47,-0.6 0.63,-0.97c0.32,-0.76 0.7,-0.85 1.61,-0.37c0.9,0.47 1.5,0.4 1.78,-0.21c0.13,-0.29 0.49,-0.63 0.8,-0.75c0.76,-0.29 2.44,0.54 3.67,1.8c0.5,0.52 1.06,0.94 1.24,0.94c0.18,0 0.5,0.13 0.72,0.29c0.29,0.21 0.53,0.23 0.97,0.06c0.47,-0.18 0.56,-0.32 0.48,-0.76c-0.16,-0.9 0.2,-1.78 0.76,-1.86c0.28,-0.04 0.61,-0.22 0.74,-0.4c0.38,-0.52 1.01,-0.13 1.43,0.89c0.21,0.52 0.46,0.94 0.56,0.94c0.09,0 0.37,-0.27 0.61,-0.61l0.44,-0.62l-0.58,-0.27c-0.46,-0.22 -0.6,-0.45 -0.65,-1.08c-0.08,-0.94 0.23,-1.4 0.93,-1.4c0.47,0 0.5,-0.08 0.5,-1.16c0,-0.84 0.09,-1.2 0.32,-1.28c0.17,-0.07 0.31,-0.24 0.31,-0.38c0,-0.32 0.89,-1.17 1.22,-1.17c0.14,0 0.44,-0.11 0.67,-0.25c0.33,-0.21 0.52,-0.2 1.02,0.1c0.79,0.47 0.83,0.46 0.71,-0.13c-0.08,-0.41 0.01,-0.52 0.53,-0.62c0.64,-0.13 1.11,-0.8 0.66,-0.95c-0.14,-0.05 -0.52,-0.33 -0.86,-0.64c-0.58,-0.52 -0.6,-0.59 -0.41,-1.58c0.19,-1.03 0.05,-1.84 -0.38,-2.11c-0.12,-0.07 -0.22,-0.32 -0.22,-0.55c0,-0.28 -0.25,-0.52 -0.77,-0.74c-0.7,-0.29 -0.82,-0.29 -1.47,0.06c-0.54,0.29 -0.79,0.33 -1.07,0.16c-0.54,-0.34 -1.93,-2.22 -2.05,-2.76c-0.05,-0.26 -0.15,-0.71 -0.21,-1c-0.07,-0.34 -0.35,-0.62 -0.83,-0.83c-0.6,-0.25 -0.73,-0.41 -0.73,-0.92c0,-0.42 0.16,-0.72 0.52,-0.96c0.29,-0.18 0.52,-0.53 0.52,-0.76c0,-0.55 -0.54,-1.6 -0.88,-1.72c-0.2,-0.06 -0.2,-0.26 -0.01,-0.93c0.14,-0.47 0.26,-1.05 0.26,-1.3c0,-0.56 -0.77,-2.12 -1.05,-2.12c-0.11,0 -0.26,-0.23 -0.33,-0.52c-0.16,-0.64 -0.82,-0.87 -1.47,-0.52c-0.41,0.22 -0.58,0.2 -1.02,-0.09c-0.55,-0.36 -0.68,-1.06 -0.35,-1.89c0.23,-0.59 -0.54,-2.01 -1.1,-2.02c-0.98,-0.02 -1.48,-0.94 -0.99,-1.85c0.29,-0.54 0.36,-1.76 0.11,-1.85c-0.13,-0.05 -0.4,0.11 -0.61,0.34z"/>
   <path  id="kollam"  d="m1109.26,136.49c-0.27,0.34 -0.65,0.62 -0.86,0.62c-0.59,0 -0.66,0.23 -0.22,0.79c0.57,0.72 0.53,0.94 -0.37,1.94c-0.43,0.48 -0.84,1.07 -0.9,1.32c-0.15,0.61 -1.5,0.75 -2.42,0.26c-0.61,-0.33 -0.68,-0.32 -2.06,0.29c-0.78,0.36 -1.56,0.64 -1.73,0.64c-0.34,0 -0.77,0.94 -0.74,1.61c0.03,0.59 -1.19,1.33 -2.18,1.33c-0.58,0 -0.72,0.08 -0.72,0.41c0,1.06 -0.95,1.94 -1.37,1.27c-0.07,-0.12 -0.21,-0.17 -0.3,-0.11c-0.29,0.17 -0.85,-0.12 -0.85,-0.44c0,-0.37 -0.23,-0.37 -0.74,0.02c-0.23,0.17 -0.61,0.31 -0.86,0.31c-0.27,0.01 -0.49,0.18 -0.56,0.43c-0.19,0.73 -0.77,0.51 -0.77,-0.29c0,-0.39 -0.15,-0.83 -0.32,-0.97c-0.33,-0.28 -0.43,-1.05 -0.14,-1.05c0.1,0 0.55,-0.35 1,-0.79c0.85,-0.82 1.12,-1.52 0.53,-1.38c-0.19,0.04 -0.48,-0.02 -0.65,-0.14c-0.28,-0.19 -0.27,-0.25 0.05,-0.49c0.56,-0.44 0.43,-0.61 -0.34,-0.47c-1,0.19 -1.39,-0.02 -1.39,-0.74c0,-0.46 -0.1,-0.6 -0.41,-0.6c-0.22,0 -0.46,-0.08 -0.52,-0.18c-0.17,-0.28 -3.31,-0.03 -3.84,0.3c-0.65,0.41 -0.74,0.39 -1.58,-0.43c-0.63,-0.61 -0.91,-0.73 -1.86,-0.78c-1.1,-0.07 -1.13,-0.08 -1.19,-0.75c-0.08,-0.82 -0.59,-0.91 -0.88,-0.16c-0.21,0.55 -0.74,0.71 -0.89,0.28c-0.04,-0.13 -0.19,-0.17 -0.33,-0.09c-0.24,0.15 -2.14,2.68 -3.23,4.3c-0.27,0.38 -0.93,1.15 -1.48,1.7c-0.54,0.55 -0.99,1.1 -0.99,1.21c0,0.12 -0.58,0.68 -1.29,1.24c-0.71,0.56 -1.65,1.36 -2.1,1.78c-0.95,0.89 -2.44,1.49 -2.98,1.19c-0.27,-0.16 -0.59,0.07 -1.55,1.1c-1.3,1.39 -1.82,2.19 -1.63,2.49c0.23,0.37 -0.36,3.27 -0.83,4.1c-0.68,1.18 -1.11,2.69 -1.25,4.41c-0.18,1.97 -0.51,3.43 -0.96,4.19c-0.21,0.35 -0.58,1.19 -0.82,1.87c-0.23,0.69 -0.66,1.58 -0.95,2c-0.28,0.41 -0.65,1.13 -0.82,1.6c-0.17,0.48 -0.51,1.28 -0.77,1.79c-0.75,1.46 -2.3,5.29 -2.19,5.41c0.06,0.05 0.22,-0.01 0.35,-0.15c0.27,-0.27 1.88,-0.33 3.15,-0.12c0.64,0.11 0.78,0.23 0.84,0.68c0.04,0.42 0.17,0.55 0.53,0.54c0.26,-0.01 1.11,-0.03 1.89,-0.05c1.38,-0.04 1.43,-0.06 1.71,-0.71c0.16,-0.36 0.36,-0.95 0.43,-1.31c0.1,-0.51 0.29,-0.7 0.94,-0.91c0.91,-0.3 2.19,-0.14 2.36,0.29c0.06,0.16 0.24,0.29 0.39,0.29c0.16,0 0.62,0.17 1.03,0.37c0.66,0.32 0.73,0.44 0.61,0.97c-0.12,0.57 -0.09,0.6 0.37,0.45c0.27,-0.09 1.02,-0.15 1.65,-0.13c0.93,0.03 1.25,0.14 1.65,0.57c0.33,0.36 0.66,0.5 1.04,0.46c0.58,-0.07 0.59,-0.11 0.41,-1.64c-0.05,-0.47 0,-0.52 0.62,-0.46c0.58,0.06 0.68,0 0.68,-0.39c0,-0.41 0.1,-0.44 1.11,-0.4c2.03,0.1 2.27,0.05 2.14,-0.48c-0.06,-0.26 -0.03,-0.92 0.08,-1.46c0.16,-0.88 0.14,-1.02 -0.24,-1.27c-0.41,-0.28 -0.41,-0.29 -0.03,-0.9c0.21,-0.34 0.41,-0.66 0.45,-0.71c0.04,-0.05 0.26,0.12 0.49,0.37c0.23,0.25 0.52,0.46 0.63,0.46c0.11,0 0.2,0.17 0.2,0.39c0,0.65 0.55,0.97 1.17,0.69c0.29,-0.14 0.77,-0.24 1.07,-0.24c0.3,0 0.87,-0.21 1.27,-0.46c0.57,-0.35 0.82,-0.4 1.1,-0.22c0.27,0.16 0.43,0.16 0.61,-0.02c0.18,-0.18 0.34,-0.18 0.63,0.01c0.22,0.13 0.59,0.19 0.84,0.12c0.24,-0.06 0.59,0.01 0.77,0.16c0.38,0.32 0.66,0.09 0.75,-0.64c0.09,-0.65 0.82,-0.81 1.55,-0.33c0.6,0.39 0.64,0.81 0.19,1.69c-0.32,0.6 -0.31,0.65 0.12,0.94c0.26,0.18 0.78,0.64 1.16,1.04c0.58,0.6 0.75,0.68 1.01,0.45c0.18,-0.14 0.63,-0.24 1.02,-0.21c1.01,0.08 1.55,-0.17 1.83,-0.84c0.32,-0.76 1.01,-1.06 2.39,-1.06c0.92,0 1.2,0.09 1.77,0.61c0.37,0.34 0.67,0.8 0.67,1.03c0,0.52 0.38,0.82 1.16,0.91c0.46,0.05 0.65,0.19 0.69,0.52c0.04,0.25 0.29,0.61 0.57,0.79c0.48,0.31 0.52,0.3 0.74,-0.11c0.2,-0.37 0.37,-0.43 0.98,-0.33c0.41,0.07 0.9,0.26 1.09,0.44c0.23,0.21 0.44,0.25 0.65,0.11c0.17,-0.1 0.56,-0.19 0.86,-0.2c0.3,0 0.76,-0.19 1.03,-0.42c0.38,-0.33 0.78,-0.42 1.98,-0.42c1.36,0 1.57,0.06 2.17,0.6c0.83,0.74 0.85,1.08 0.05,1.08c-0.41,0 -0.65,0.13 -0.74,0.39c-0.09,0.29 -0.38,0.43 -1.07,0.5c-0.52,0.06 -1.01,0.17 -1.09,0.25c-0.26,0.27 0.03,3.47 0.31,3.47c0.06,0 0.81,-0.47 1.68,-1.04c0.86,-0.58 1.72,-1.05 1.91,-1.06c0.78,0 2.79,-0.78 3.22,-1.24c0.38,-0.41 0.6,-0.46 1.46,-0.38c0.8,0.08 1.09,0.02 1.37,-0.29c0.19,-0.22 0.26,-0.39 0.16,-0.4c-0.56,-0.02 0.73,-0.62 1.33,-0.62c0.39,0 0.86,-0.15 1.05,-0.34c0.24,-0.24 0.58,-0.31 1.24,-0.23c0.85,0.09 0.91,0.07 0.91,-0.42c0,-0.38 0.08,-0.49 0.31,-0.4l0.63,0.26c0.2,0.08 0.31,0.01 0.31,-0.18c0,-0.54 0.55,-0.85 1.03,-0.59c0.35,0.19 0.47,0.15 0.65,-0.19c0.13,-0.24 0.37,-0.43 0.54,-0.43c0.52,0 1.86,-0.77 2.14,-1.24c0.29,-0.47 0.89,-0.56 1.53,-0.22c0.31,0.17 0.49,0.12 0.84,-0.22c0.5,-0.51 2.08,-1.04 3.09,-1.04c0.38,0 0.73,-0.13 0.79,-0.29c0.08,-0.2 0.75,-0.32 2.25,-0.42c1.77,-0.12 3.26,-0.4 3.7,-0.7c0.05,-0.04 -0.1,-0.24 -0.33,-0.45c-0.23,-0.22 -0.54,-0.92 -0.7,-1.57c-0.17,-0.71 -0.39,-1.19 -0.56,-1.19c-0.16,0 -0.28,0.14 -0.28,0.32c0,0.31 -0.43,0.4 -1.47,0.31c-0.72,-0.06 -1.68,-0.78 -1.68,-1.27c0,-0.22 -0.08,-0.41 -0.19,-0.41c-0.1,0 -0.24,-0.21 -0.3,-0.47c-0.07,-0.27 -0.39,-0.58 -0.74,-0.71c-0.57,-0.21 -0.61,-0.3 -0.55,-1.18c0.07,-1.1 0.24,-1.48 0.61,-1.34c0.15,0.06 0.37,-0.2 0.52,-0.61c0.2,-0.56 0.4,-0.73 0.96,-0.84c0.57,-0.1 0.74,-0.26 0.85,-0.74c0.07,-0.33 0.08,-0.67 0.03,-0.76c-0.06,-0.09 0.03,-0.47 0.18,-0.85c0.24,-0.55 0.41,-0.68 0.93,-0.68c0.4,0 0.64,-0.1 0.64,-0.28c0,-0.16 0.17,-0.51 0.39,-0.79c0.28,-0.36 0.39,-0.87 0.39,-1.81c0.01,-0.72 -0.08,-1.31 -0.19,-1.31c-0.11,0 -0.17,-0.21 -0.14,-0.47c0.05,-0.35 0.22,-0.48 0.61,-0.49c0.3,0 0.77,-0.22 1.05,-0.48c0.28,-0.26 0.67,-0.43 0.87,-0.38c0.28,0.08 0.4,-0.1 0.53,-0.77c0.16,-0.8 0.23,-0.88 0.9,-0.94c0.84,-0.08 1.79,-0.84 1.46,-1.17c-0.62,-0.62 0.44,-1.91 1.39,-1.67c0.4,0.1 0.53,0.01 0.72,-0.47c0.16,-0.43 0.16,-0.74 -0.01,-1.1c-0.18,-0.39 -0.17,-0.58 0.07,-0.85c0.17,-0.18 0.37,-0.77 0.45,-1.3c0.11,-0.75 0.06,-1.04 -0.21,-1.31c-0.19,-0.19 -0.44,-0.35 -0.54,-0.35c-0.11,0 -0.2,-0.13 -0.2,-0.29c0,-0.15 -0.13,-0.4 -0.3,-0.54c-0.17,-0.13 -0.33,-0.54 -0.37,-0.91c-0.05,-0.54 -0.17,-0.68 -0.71,-0.79c-1.03,-0.2 -1.13,-0.35 -1.13,-1.58l0,-1.15l-1,-0.44c-1.26,-0.55 -1.21,-0.49 -0.93,-1.11c0.22,-0.48 0.2,-0.53 -0.27,-0.53c-0.28,0 -0.56,0.1 -0.64,0.21c-0.07,0.12 -0.33,0.21 -0.59,0.21c-0.25,0 -0.8,0.23 -1.21,0.51c-0.41,0.28 -1.4,0.86 -2.2,1.29c-0.8,0.42 -1.83,1.08 -2.29,1.45c-0.46,0.37 -1.19,0.74 -1.63,0.82c-0.61,0.11 -0.9,0.33 -1.31,0.98c-0.38,0.59 -0.67,0.82 -1.04,0.82c-0.28,0 -0.6,0.17 -0.71,0.38c-0.11,0.2 -0.62,0.48 -1.14,0.62c-0.51,0.13 -1.22,0.49 -1.57,0.78c-0.45,0.38 -0.87,0.53 -1.51,0.53c-0.48,0 -1.46,0.16 -2.17,0.34c-1.16,0.31 -1.39,0.31 -2.24,0.03c-0.61,-0.2 -1.09,-0.54 -1.36,-0.95c-0.23,-0.36 -0.64,-0.75 -0.92,-0.88c-0.41,-0.19 -0.47,-0.34 -0.37,-0.85c0.11,-0.55 0.07,-0.63 -0.35,-0.63c-0.6,0 -1.42,-0.6 -1.04,-0.76c0.15,-0.06 0.27,-0.47 0.27,-0.95c0,-0.64 0.16,-1.04 0.71,-1.71c0.39,-0.48 0.75,-1.06 0.79,-1.29c0.06,-0.37 -0.06,-0.43 -1,-0.49c-1.08,-0.06 -1.08,-0.06 -1.41,0.76c-0.36,0.92 -0.65,1.09 -1.83,1.09c-0.64,0 -0.89,-0.11 -1.16,-0.53c-0.19,-0.28 -0.3,-0.7 -0.24,-0.92c0.1,-0.37 -0.01,-0.4 -1.46,-0.33c-1.48,0.06 -1.59,0.03 -2.18,-0.55c-0.78,-0.75 -1.01,-0.75 -1.63,0.03l0.01,0z"/>
   <path  id="wayanad"  d="m1015.41,455.5c-0.49,0.47 -0.97,0.84 -1.06,0.84c-0.08,0 -0.27,0.25 -0.41,0.55c-0.19,0.43 -0.36,0.53 -0.77,0.45c-0.42,-0.08 -0.59,0.02 -0.84,0.5c-0.28,0.55 -0.39,0.59 -1.1,0.48c-1.11,-0.18 -1.56,0.34 -1.29,1.49c0.19,0.84 -0.07,2.2 -0.42,2.2c-0.09,0 -0.46,0.29 -0.81,0.66l-0.64,0.65l-1.18,-1.18c-0.64,-0.65 -1.34,-1.18 -1.55,-1.18c-0.22,0 -0.68,-0.06 -1.04,-0.13c-0.56,-0.11 -0.66,-0.07 -0.66,0.27c0,0.47 -1,1.12 -1.74,1.12c-0.28,0 -0.63,0.13 -0.77,0.3c-0.14,0.17 -0.55,0.33 -0.91,0.37c-0.54,0.05 -0.76,0.23 -1.16,0.95c-0.38,0.7 -0.61,0.89 -1.04,0.89c-0.41,0 -0.95,0.42 -2.13,1.63c-1.36,1.4 -1.61,1.77 -1.79,2.67c-0.21,1.02 -0.24,1.05 -1.01,1.12c-0.62,0.05 -0.84,0.18 -0.99,0.57c-0.14,0.38 -0.35,0.52 -0.78,0.52c-0.32,0 -0.92,0.22 -1.32,0.49c-0.4,0.27 -0.94,0.56 -1.2,0.64c-0.31,0.1 -0.47,0.32 -0.47,0.65c0,0.27 -0.23,0.76 -0.5,1.09c-0.66,0.78 -0.71,2.8 -0.11,3.98c0.42,0.83 0.54,2.47 0.19,2.69c-0.42,0.26 -0.19,0.67 0.63,1.13c0.46,0.26 0.84,0.55 0.84,0.66c0,0.3 -1.12,1.26 -1.58,1.35c-0.23,0.04 -0.93,0.13 -1.57,0.2c-0.63,0.06 -1.18,0.19 -1.21,0.29c-0.03,0.09 -0.85,0.13 -1.83,0.08l-1.77,-0.09l-0.34,0.87c-0.38,0.94 -0.81,1.28 -1.65,1.28c-0.36,0 -0.54,0.11 -0.54,0.35c0,0.53 -1.88,2.14 -2.68,2.29c-0.51,0.1 -0.67,0.22 -0.58,0.45c0.17,0.44 -0.47,1.1 -1.05,1.1c-0.66,0 -1.03,0.5 -0.62,0.84c0.17,0.14 0.32,0.57 0.32,0.95c0,0.43 0.12,0.73 0.32,0.81c0.24,0.09 0.31,0.35 0.27,0.9c-0.06,0.61 -0.2,0.84 -0.7,1.12c-0.41,0.22 -0.65,0.54 -0.7,0.91c-0.06,0.5 0.06,0.62 1.1,1.08c1.13,0.5 1.16,0.53 1.04,1.2c-0.08,0.38 -0.37,0.88 -0.65,1.12c-0.61,0.49 -0.58,1.21 0.05,1.31c0.76,0.11 1.36,0.52 1.36,0.91c0,0.51 1.21,0.54 1.58,0.03c0.23,-0.31 0.41,-0.32 1.49,-0.13c1.09,0.2 1.26,0.18 1.49,-0.14c0.21,-0.31 0.49,-0.35 1.76,-0.26c1.24,0.09 1.53,0.05 1.69,-0.23c0.12,-0.21 0.46,-0.35 0.86,-0.34c0.37,0 1.06,-0.06 1.53,-0.13c0.57,-0.08 1.12,-0.01 1.65,0.21c0.71,0.29 0.88,0.3 1.41,0.03c0.59,-0.29 0.62,-0.28 0.81,0.22c0.12,0.29 0.21,0.9 0.21,1.36c0,0.74 -0.1,0.89 -0.95,1.49c-0.52,0.37 -0.94,0.74 -0.94,0.84c0,0.09 0.32,0.16 0.72,0.16c1.04,0 1.79,0.41 1.91,1.04c0.06,0.29 0.21,0.9 0.32,1.33c0.17,0.64 0.14,0.96 -0.14,1.61c-0.2,0.45 -0.53,0.86 -0.72,0.91c-0.41,0.11 -0.71,1.84 -0.32,1.8c0.51,-0.05 0.74,0.04 0.74,0.31c0,0.2 0.41,0.32 1.32,0.41c1.08,0.1 1.43,0.05 2.04,-0.31c0.64,-0.38 2.16,-0.7 4.3,-0.9c0.74,-0.07 1.15,0.2 1.15,0.76c0,0.32 0.11,0.37 0.55,0.26c0.33,-0.09 0.61,-0.04 0.7,0.11c0.12,0.19 0.28,0.19 0.7,0c0.69,-0.32 1.7,0.05 2.18,0.78c0.18,0.27 0.46,0.49 0.63,0.49c0.32,0 1.95,1.19 2.23,1.63c0.1,0.15 0.61,0.26 1.26,0.26c0.8,0 1.4,0.17 2.27,0.62l1.17,0.63l0.19,-5.92c0.1,-3.26 0.18,-6.46 0.17,-7.12c-0.01,-0.99 0.06,-1.23 0.37,-1.33c0.21,-0.07 0.38,-0.26 0.38,-0.42c0,-0.34 0.54,-0.41 0.73,-0.09c0.07,0.11 0.38,0.18 0.68,0.16c0.32,-0.03 0.59,0.07 0.65,0.25c0.15,0.46 1.11,1.27 1.49,1.27c0.2,0 0.54,0.13 0.76,0.29c0.27,0.2 0.52,0.23 0.76,0.11c0.22,-0.12 0.92,-0.11 1.79,0.01c0.78,0.11 1.52,0.21 1.64,0.21c0.31,0.01 1.88,-1.47 2.18,-2.05c0.19,-0.36 0.2,-0.66 0.03,-1.14c-0.34,-0.99 -0.27,-1.73 0.22,-2.17c0.25,-0.22 0.62,-0.79 0.83,-1.27c0.33,-0.79 0.49,-0.91 1.52,-1.21c1.3,-0.38 2.36,-0.43 2.55,-0.13c0.12,0.2 0.92,0.45 2.34,0.73c0.63,0.13 0.68,0.09 1.03,-0.83c0.42,-1.08 1.41,-1.97 2.44,-2.18c0.61,-0.13 0.69,-0.23 0.9,-1.29c0.37,-1.82 0.93,-2.77 1.77,-2.98c0.39,-0.1 0.87,-0.38 1.06,-0.62c0.22,-0.27 0.73,-0.49 1.38,-0.59c0.91,-0.13 1.11,-0.09 1.62,0.33c0.73,0.62 1.39,0.83 1.69,0.53c0.41,-0.41 0.99,-0.24 1.77,0.52c0.7,0.68 0.79,0.72 1.03,0.39c0.24,-0.33 0.31,-0.32 1.01,0.1c0.42,0.24 0.8,0.44 0.85,0.44c0.05,0 0.1,-0.48 0.1,-1.06c0,-0.92 0.05,-1.05 0.36,-0.95c0.43,0.14 1.1,-0.87 1.1,-1.65c0,-0.47 -0.94,-1.32 -1.33,-1.2c-0.29,0.09 -1.18,-0.57 -1.18,-0.88c0,-0.15 0.18,-0.44 0.41,-0.64c0.29,-0.27 0.38,-0.57 0.32,-1.05c-0.05,-0.37 0.09,-1.19 0.32,-1.81c0.23,-0.62 0.42,-1.15 0.42,-1.17c0,-0.02 0.3,-0.02 0.66,0c0.61,0.03 0.72,-0.07 1.25,-1.11c0.31,-0.62 0.72,-1.21 0.9,-1.32c0.28,-0.16 0.26,-0.28 -0.21,-1c-0.49,-0.73 -0.6,-0.79 -1.06,-0.62c-0.76,0.29 -1.98,0.24 -3.36,-0.12c-1.51,-0.39 -2,-0.86 -2.04,-1.92c-0.01,-0.5 -0.16,-0.91 -0.39,-1.08c-0.2,-0.15 -0.37,-0.41 -0.37,-0.57c0,-0.17 -0.17,-0.31 -0.39,-0.31c-0.21,0 -0.79,-0.29 -1.29,-0.65c-0.49,-0.36 -1.26,-0.7 -1.71,-0.76c-0.71,-0.1 -0.8,-0.06 -0.8,0.33c0,0.23 -0.1,0.49 -0.21,0.56c-0.28,0.17 -1.27,-0.37 -2.12,-1.18c-0.81,-0.78 -2.05,-1.48 -2.32,-1.32c-0.1,0.06 -0.18,0.34 -0.18,0.61c0,0.85 -0.22,1.16 -0.84,1.16c-0.44,0 -0.69,0.17 -1.02,0.73c-0.29,0.49 -0.53,0.69 -0.75,0.6c-0.18,-0.06 -0.32,-0.2 -0.32,-0.31c0,-0.1 -0.2,-0.18 -0.44,-0.18c-0.58,0 -1.6,-0.74 -1.77,-1.28c-0.08,-0.26 -0.69,-0.7 -1.53,-1.1c-1.66,-0.8 -1.8,-1.18 -0.89,-2.33c0.35,-0.44 0.64,-1.04 0.64,-1.32c0,-0.28 0.19,-0.76 0.42,-1.05c0.23,-0.29 0.42,-0.7 0.42,-0.9c0,-0.32 -0.11,-0.35 -0.79,-0.19c-1.04,0.23 -1.64,-0.17 -1.94,-1.29c-0.2,-0.74 -0.3,-0.85 -0.69,-0.75c-0.63,0.15 -2.3,-0.31 -2.75,-0.75c-0.2,-0.21 -0.43,-0.37 -0.5,-0.37c-0.08,-0.01 -0.33,-0.38 -0.54,-0.84c-0.22,-0.45 -0.58,-1.01 -0.79,-1.24c-0.5,-0.53 -0.49,-0.65 0.03,-0.65c0.78,0 0.42,-0.54 -0.74,-1.11c-0.64,-0.31 -1.21,-0.7 -1.27,-0.86c-0.07,-0.16 -0.28,-0.25 -0.49,-0.19c-0.23,0.06 -0.5,-0.1 -0.72,-0.44c-0.49,-0.75 -0.95,-0.68 -2,0.29z"/>
   <path  id="thrissur"  d="m1031.76,303.75c-0.22,0.4 -0.57,0.78 -0.79,0.85c-0.54,0.17 -0.84,0.83 -0.68,1.47c0.13,0.52 0.11,0.54 -0.6,0.41c-0.45,-0.09 -0.79,-0.05 -0.88,0.09c-0.07,0.12 -0.6,0.22 -1.16,0.22c-0.56,0 -1.08,0.1 -1.15,0.21c-0.37,0.6 -2.21,-0.02 -2.21,-0.74c0,-0.56 -0.35,-0.72 -1.55,-0.72c-0.48,0 -1.07,-0.14 -1.29,-0.31c-0.22,-0.17 -0.61,-0.31 -0.85,-0.32c-0.25,0 -0.69,-0.2 -1,-0.44c-0.54,-0.43 -0.97,-0.39 -0.97,0.08c0,0.14 -0.37,1.29 -0.82,2.56c-0.87,2.42 -2.49,7.5 -2.62,8.19c-0.04,0.23 -0.14,0.83 -0.22,1.35c-0.21,1.39 -1.24,4.45 -2.66,7.94c-0.69,1.69 -1.44,3.74 -1.68,4.54c-0.23,0.81 -0.54,1.61 -0.68,1.79c-0.15,0.17 -0.72,1.35 -1.27,2.62c-0.55,1.27 -1.15,2.53 -1.32,2.81c-0.18,0.28 -0.98,1.79 -1.79,3.36c-0.81,1.56 -1.88,3.46 -2.38,4.21c-0.5,0.75 -1.13,1.98 -1.41,2.73c-0.28,0.75 -0.95,2.4 -1.49,3.67c-0.53,1.27 -1.26,3.06 -1.62,3.98c-0.36,0.93 -0.77,1.82 -0.92,1.99c-0.15,0.18 -0.48,0.84 -0.72,1.47c-0.25,0.64 -0.56,1.28 -0.69,1.43c-0.25,0.3 -1.02,2.08 -1.56,3.57c-0.39,1.09 -0.2,1.38 1.04,1.6c0.63,0.11 0.79,0.07 0.79,-0.19c0,-0.41 0.7,-0.42 1.05,-0.01c0.34,0.42 1.8,0.42 1.96,0c0.17,-0.45 0.84,-0.39 1.29,0.11c0.21,0.23 0.73,0.51 1.15,0.62c0.43,0.12 1.03,0.45 1.34,0.73c0.54,0.51 0.58,0.51 1.28,0.18c0.57,-0.28 0.78,-0.29 1.03,-0.09c0.17,0.15 0.26,0.38 0.21,0.53c-0.11,0.28 0.67,1.78 1.06,2.06c0.38,0.27 3.24,0.17 3.95,-0.13c0.37,-0.16 1,-0.63 1.4,-1.05c0.89,-0.94 1.53,-0.98 2.03,-0.13c0.5,0.85 1.59,0.89 2.22,0.09c0.3,-0.38 0.49,-0.47 0.65,-0.31c0.31,0.3 0.56,0.28 0.56,-0.05c0,-0.67 0.47,-0.76 1.18,-0.22c0.39,0.3 0.71,0.66 0.71,0.8c0,0.14 0.2,0.43 0.44,0.65c0.24,0.22 0.56,0.7 0.71,1.07c0.16,0.36 0.53,0.83 0.82,1.02c0.33,0.21 0.55,0.55 0.55,0.84c0,0.38 0.08,0.45 0.42,0.37c0.74,-0.2 1.23,0.46 1.1,1.47c-0.06,0.48 -0.19,0.97 -0.29,1.08c-0.32,0.35 -0.2,0.53 0.35,0.53c0.3,0 0.74,0.11 0.99,0.24c0.38,0.2 0.49,0.17 0.74,-0.21c0.23,-0.33 0.52,-0.45 1.17,-0.45c1.44,-0.01 1.57,-0.23 1.34,-2.3c-0.05,-0.48 0.01,-0.52 0.68,-0.49c2.1,0.13 3.73,0.33 4.23,0.52c0.43,0.17 0.87,0.11 1.99,-0.24c0.79,-0.26 1.68,-0.59 1.97,-0.75c0.48,-0.25 0.62,-0.23 1.21,0.13c0.86,0.52 1.17,0.51 1.9,-0.03c0.36,-0.27 0.82,-0.41 1.19,-0.37c0.49,0.06 0.63,0.21 0.78,0.81c0.26,1.12 0.8,1.68 1.83,1.91c1.06,0.24 1.32,0.04 1.68,-1.28c0.37,-1.32 0.45,-1.37 1.71,-1.08c0.62,0.14 2.57,0.32 4.34,0.39l3.23,0.12l-0.16,-0.48c-0.12,-0.37 -0.02,-0.57 0.41,-0.92l0.57,-0.45l-0.75,-0.68c-0.72,-0.66 -0.88,-1 -1.01,-2.15c-0.05,-0.41 -0.2,-0.54 -0.79,-0.64c-0.41,-0.06 -1,-0.29 -1.32,-0.5l-0.59,-0.39l0.44,-0.46c0.26,-0.27 0.51,-0.96 0.63,-1.7c0.27,-1.62 0.28,-1.55 -0.28,-1.55c-0.61,0 -1.19,-0.61 -1.19,-1.25c0,-0.38 -0.09,-0.46 -0.44,-0.36c-0.6,0.15 -1.03,-0.04 -1.03,-0.47c0,-0.2 -0.15,-0.82 -0.34,-1.38l-0.35,-1.02l0.57,-0.49c0.8,-0.68 0.7,-1.59 -0.19,-1.74c-0.38,-0.07 -0.71,-0.29 -0.83,-0.56c-0.14,-0.31 -0.37,-0.44 -0.73,-0.42c-0.68,0.04 -0.79,-0.52 -0.37,-1.78c0.25,-0.74 0.43,-0.93 1.06,-1.11c0.54,-0.16 0.93,-0.5 1.39,-1.2c0.36,-0.54 0.79,-1.03 0.98,-1.1c0.24,-0.1 0.27,-0.2 0.1,-0.4c-0.12,-0.15 -0.22,-0.45 -0.22,-0.68c0,-0.22 -0.06,-0.7 -0.14,-1.07c-0.1,-0.51 -0.04,-0.72 0.29,-0.94c0.23,-0.17 0.45,-0.53 0.49,-0.82c0.06,-0.42 0.19,-0.52 0.7,-0.52c0.73,0 1.4,-0.79 2.5,-2.92c0.65,-1.25 0.68,-1.27 1.63,-1.33c0.75,-0.05 0.99,-0.16 1.08,-0.48c0.08,-0.31 0.29,-0.4 0.94,-0.4c0.55,0 0.88,-0.11 0.96,-0.32c0.08,-0.21 0.4,-0.31 0.96,-0.31c0.77,0 0.91,-0.1 1.68,-1.12c0.47,-0.62 0.85,-1.22 0.85,-1.34c0,-0.32 0.52,-0.48 1.57,-0.48c0.88,0 0.92,-0.03 0.98,-0.68l0.07,-0.68l1.93,-0.06l1.93,-0.06l0.26,-0.74c0.15,-0.41 0.5,-0.85 0.8,-0.99c0.37,-0.18 0.6,-0.52 0.75,-1.14c0.12,-0.49 0.49,-1.2 0.84,-1.57c0.34,-0.38 0.67,-0.87 0.73,-1.09c0.06,-0.22 0.35,-0.58 0.64,-0.8c0.49,-0.36 0.66,-0.37 1.97,-0.15c1.31,0.23 1.47,0.22 1.71,-0.12c0.23,-0.31 0.33,-0.33 0.6,-0.11c0.17,0.15 0.32,0.4 0.32,0.56c0,0.52 0.35,0.31 0.92,-0.55c0.75,-1.14 2.26,-1.89 3.62,-1.81c0.86,0.05 1.03,0.12 1.08,0.51c0.06,0.4 0.2,0.46 1.04,0.46c0.53,0 1.25,-0.08 1.61,-0.19c1.8,-0.53 2.99,-0.85 3.37,-0.91c0.29,-0.04 0.42,-0.22 0.42,-0.58c0,-0.39 -0.19,-0.61 -0.79,-0.89c-0.64,-0.3 -0.78,-0.48 -0.78,-0.97c0,-0.59 0.02,-0.6 1.4,-0.71c1.25,-0.1 1.44,-0.06 1.78,0.34c0.36,0.43 0.4,0.43 0.67,0.07c0.24,-0.3 0.55,-0.36 1.63,-0.31c1.15,0.05 1.34,0.12 1.39,0.49c0.04,0.23 0.27,0.52 0.53,0.64c0.39,0.17 0.59,0.1 1.25,-0.48c0.43,-0.38 0.93,-0.69 1.1,-0.69c0.45,0 0.4,-1.22 -0.09,-2.33c-0.44,-0.98 -0.3,-1.65 0.36,-1.67c0.63,-0.01 1.09,-0.53 1.09,-1.22c0,-0.36 -0.11,-0.66 -0.24,-0.66c-0.14,0 -0.42,-0.15 -0.62,-0.34c-0.34,-0.3 -0.41,-0.31 -0.71,0c-0.77,0.77 -2.52,0.86 -3.31,0.17c-0.21,-0.18 -0.54,-0.34 -0.74,-0.36c-1.58,-0.13 -2.4,-0.37 -2.5,-0.73c-0.05,-0.21 -0.24,-0.44 -0.4,-0.5c-0.42,-0.16 -1.73,0.41 -1.89,0.81c-0.18,0.49 -1.02,0.39 -1.74,-0.22c-0.61,-0.51 -0.74,-0.54 -2.07,-0.4c-1.23,0.12 -1.53,0.08 -2.18,-0.3l-0.74,-0.45l-1.87,0.63c-1.31,0.44 -1.88,0.73 -1.93,1c-0.04,0.21 -0.15,0.46 -0.24,0.56c-0.3,0.32 -1.91,-0.1 -2.35,-0.61c-0.23,-0.26 -0.65,-0.54 -0.93,-0.61c-0.58,-0.14 -1.64,0.34 -1.84,0.84c-0.1,0.27 -0.3,0.31 -0.96,0.2c-0.75,-0.13 -0.89,-0.07 -1.57,0.6c-0.41,0.41 -0.74,0.84 -0.74,0.96c0,0.48 -1.03,0.89 -1.87,0.75c-1,-0.17 -1.22,-0.4 -1.31,-1.37c-0.1,-0.98 -0.83,-1.13 -1.48,-0.3c-0.39,0.49 -0.55,0.55 -1.32,0.44c-0.48,-0.07 -1.18,-0.29 -1.54,-0.5c-0.63,-0.35 -0.69,-0.36 -1.31,0c-0.35,0.2 -0.96,0.36 -1.34,0.36c-0.38,0 -1.03,0.15 -1.45,0.32c-0.62,0.26 -0.93,0.28 -1.56,0.09c-0.69,-0.21 -0.92,-0.18 -1.79,0.23c-1.08,0.51 -1.65,0.45 -3.56,-0.37c-0.76,-0.33 -0.82,-0.33 -1.01,0.01c-0.45,0.8 -1.79,0.12 -1.9,-0.95c-0.05,-0.52 -0.18,-0.7 -0.59,-0.79c-0.28,-0.07 -0.61,-0.33 -0.72,-0.58c-0.11,-0.25 -0.42,-0.51 -0.68,-0.57c-0.32,-0.08 -0.48,-0.28 -0.49,-0.59c-0.01,-0.69 -0.24,-0.95 -0.94,-1.03c-0.5,-0.05 -0.65,-0.19 -0.73,-0.66c-0.11,-0.6 -0.59,-0.85 -3.07,-1.62c-0.78,-0.24 -1,-0.48 -1.77,-1.94c-0.55,-1.05 -0.62,-1.1 -1.7,-1.27c-1.54,-0.25 -1.66,-0.39 -1.51,-1.7l0.13,-1.1l-0.63,0.1c-0.53,0.07 -0.64,0.01 -0.76,-0.47c-0.11,-0.43 -0.24,-0.53 -0.55,-0.43c-0.22,0.07 -0.68,-0.02 -1.03,-0.2c-0.34,-0.17 -0.66,-0.32 -0.69,-0.32c-0.04,0 -0.25,0.33 -0.46,0.73z"/>
   <path  id="alappuzha"  d="m1065.3,177.11c-0.67,0.17 -0.88,0.44 -1.03,1.27c-0.24,1.43 -0.6,1.66 -2.87,1.8c-2.09,0.13 -2.5,0.01 -2.5,-0.72c0,-0.2 -0.15,-0.41 -0.33,-0.48c-0.54,-0.21 -2.57,-0.15 -2.71,0.08c-0.07,0.12 -0.41,0.21 -0.75,0.21c-0.47,0 -0.72,0.16 -1.03,0.68c-0.38,0.62 -1.65,3.74 -3.02,7.4c-0.3,0.81 -0.77,1.8 -1.05,2.2c-0.27,0.4 -1.11,2.24 -1.86,4.09c-2.01,4.92 -2.88,6.84 -3.41,7.55c-0.76,1.03 -2.29,4.68 -2.61,6.23c-0.09,0.43 -0.27,0.92 -0.4,1.08c-0.93,1.12 -2.56,5.32 -3.16,8.13c-0.21,0.99 -0.5,2 -0.63,2.26c-0.13,0.25 -0.28,0.71 -0.32,1.02c-0.05,0.32 -0.28,1.52 -0.53,2.67c-1.05,4.96 -1.54,7.91 -1.68,10.07c-0.08,1.27 -0.25,2.59 -0.38,2.94c-0.13,0.34 -0.33,1.99 -0.45,3.67c-0.41,5.7 -0.62,7.47 -1.05,9.08c-0.24,0.92 -0.43,2.25 -0.43,3.12c0,0.83 -0.16,2.4 -0.35,3.49l-0.35,1.97l0.5,0.38c0.44,0.33 0.48,0.46 0.29,0.97c-0.17,0.51 -0.14,0.63 0.22,0.81c0.64,0.33 0.62,0.82 -0.09,1.59c-0.69,0.76 -0.83,1.65 -0.33,2.07c0.17,0.14 0.37,0.56 0.44,0.93c0.07,0.39 0.3,0.75 0.56,0.87c0.72,0.33 0.91,0.82 0.63,1.62c-0.14,0.39 -0.26,1.2 -0.26,1.79c0,1.22 0.31,1.41 1.05,0.67c0.23,-0.23 0.61,-0.42 0.85,-0.42c0.23,0 0.63,-0.2 0.89,-0.44c0.38,-0.36 0.64,-0.42 1.47,-0.32c0.56,0.06 1.3,0.26 1.66,0.44c0.89,0.45 0.95,0.42 1.32,-0.46c0.18,-0.43 0.53,-0.99 0.77,-1.25c0.37,-0.4 0.41,-0.62 0.29,-1.59c-0.12,-0.97 -0.08,-1.17 0.29,-1.51c0.24,-0.21 0.43,-0.5 0.43,-0.64c0,-0.14 0.2,-0.51 0.44,-0.81c0.49,-0.63 0.53,-0.52 -0.91,-2.2c-0.78,-0.92 -1.04,-1.98 -0.6,-2.45c0.1,-0.11 0.35,-0.77 0.54,-1.46c0.2,-0.69 0.46,-1.37 0.57,-1.52c0.37,-0.45 0.43,-3.61 0.1,-5.71c-0.16,-1.1 -0.26,-2.07 -0.21,-2.15c0.05,-0.09 0.27,-0.16 0.47,-0.16c0.21,0 0.86,-0.2 1.44,-0.44c1.19,-0.49 1.45,-0.99 1.07,-2.05c-0.19,-0.55 -0.17,-3.46 0.04,-6.53c0.01,-0.17 -0.09,-1.07 -0.22,-1.99c-0.13,-0.93 -0.31,-2.58 -0.4,-3.67c-0.09,-1.1 -0.23,-2.14 -0.3,-2.31c-0.08,-0.17 -0.05,-0.45 0.05,-0.61c0.15,-0.23 0.42,-0.06 1.24,0.79c0.58,0.59 1.16,1.08 1.28,1.08c0.12,0 0.43,-0.33 0.69,-0.74c0.46,-0.7 0.52,-0.73 1.42,-0.61c0.52,0.08 1.45,0.36 2.06,0.65c1.52,0.7 1.82,0.61 1.82,-0.54c0,-0.83 0.08,-0.97 0.76,-1.4c0.83,-0.52 1.23,-1.59 1.23,-3.23l0,-0.85l0.88,0.14c0.61,0.1 0.82,0.07 0.72,-0.09c-0.09,-0.15 0.23,-0.25 0.96,-0.3c1.04,-0.06 1.1,-0.09 1.27,-0.76c0.15,-0.57 0.11,-0.76 -0.19,-0.97c-0.24,-0.18 -0.39,-0.62 -0.43,-1.29c-0.04,-0.63 -0.22,-1.17 -0.47,-1.44c-0.51,-0.54 -0.85,-1.43 -0.85,-2.22c0,-0.52 0.1,-0.65 0.61,-0.75c0.55,-0.11 0.61,-0.21 0.71,-1.2c0.06,-0.59 0.02,-1.24 -0.08,-1.43c-0.34,-0.64 -0.22,-1.6 0.2,-1.74c0.32,-0.09 0.39,-0.3 0.35,-1.01c-0.02,-0.48 -0.11,-1.16 -0.21,-1.5c-0.15,-0.52 -0.09,-0.67 0.43,-1.09c0.51,-0.41 0.55,-0.49 0.24,-0.61c-0.2,-0.08 -0.36,-0.34 -0.36,-0.59c0,-0.34 -0.25,-0.56 -1,-0.9c-0.54,-0.24 -1.25,-0.5 -1.56,-0.57c-0.66,-0.16 -1.37,-0.84 -1.67,-1.59c-0.24,-0.62 0.21,-1.06 1.08,-1.06c0.3,0 0.66,-0.1 0.78,-0.23c0.27,-0.27 1.5,-0.3 3.28,-0.08c0.82,0.11 1.37,0.07 1.69,-0.09c0.25,-0.14 0.93,-0.22 1.5,-0.19c0.93,0.06 1.05,0.12 1.1,0.59c0.03,0.29 0.16,0.73 0.29,0.99c0.13,0.25 0.18,0.72 0.11,1.05c-0.11,0.57 -0.06,0.62 0.85,0.89c0.92,0.27 0.98,0.26 1.27,-0.17c0.35,-0.53 0.88,-0.57 1.72,-0.14c0.56,0.29 0.63,0.29 0.82,-0.06c0.18,-0.35 2.73,-1.51 3.3,-1.51c0.13,0 0.29,0.14 0.36,0.31c0.07,0.19 0.38,0.32 0.76,0.32c0.49,0 0.63,-0.09 0.63,-0.42c0,-0.24 -0.11,-0.61 -0.25,-0.83c-0.21,-0.33 -0.19,-0.48 0.1,-0.8c0.2,-0.22 0.36,-0.68 0.36,-1.04c0,-0.46 0.12,-0.67 0.42,-0.75c0.32,-0.08 0.42,-0.28 0.42,-0.85c0,-1.07 0.91,-1.81 2.22,-1.81c0.71,0 0.87,-0.55 0.32,-1.13c-0.24,-0.26 -0.44,-0.58 -0.44,-0.72c0,-0.14 -0.14,-0.25 -0.32,-0.25c-0.68,0 -1.05,-0.8 -1.05,-2.26l0,-1.41l-0.89,-0.07c-0.64,-0.04 -0.95,-0.18 -1.12,-0.5c-0.2,-0.37 -0.16,-0.5 0.26,-0.82c0.27,-0.21 0.57,-0.39 0.65,-0.39c0.09,0 0.16,-0.42 0.16,-0.94c0,-0.72 0.1,-1 0.47,-1.25c0.25,-0.18 0.6,-0.33 0.76,-0.33c0.64,0 2.13,-1.15 2.27,-1.75c0.09,-0.43 0.34,-0.69 0.85,-0.9c0.79,-0.34 0.82,-0.85 0.03,-0.75c-0.27,0.03 -0.71,0.01 -0.97,-0.06c-0.41,-0.1 -0.47,-0.25 -0.47,-1.14c0,-1.24 -0.21,-1.35 -2.02,-1.16c-1.5,0.16 -2.18,-0.09 -2.18,-0.83c0,-0.41 -0.14,-0.51 -0.84,-0.62c-0.46,-0.08 -1.01,-0.31 -1.23,-0.52c-0.47,-0.48 -1.83,-0.72 -2.32,-0.41c-0.2,0.13 -0.62,0.17 -0.92,0.09c-0.42,-0.1 -0.56,-0.27 -0.56,-0.67c0,-0.69 -0.45,-1.14 -1.14,-1.14c-0.31,0 -0.65,-0.18 -0.8,-0.42c-0.25,-0.41 -0.66,-0.48 -1.52,-0.27z"/>
   <path  id="kannur"  d="m948.08,481.63c-0.62,0.33 -0.88,0.89 -0.67,1.43c0.16,0.44 -1.28,1.79 -1.92,1.8c-0.24,0.01 -0.53,0.11 -0.66,0.24c-0.17,0.16 -0.36,0.16 -0.7,-0.02c-0.69,-0.37 -1.36,0.08 -2.33,1.56c-0.44,0.69 -0.81,1.32 -0.81,1.42c0,0.09 -0.28,0.17 -0.63,0.17c-0.4,0 -0.77,0.16 -1,0.45c-0.2,0.25 -0.57,0.66 -0.83,0.92c-0.26,0.25 -0.48,0.61 -0.48,0.8c0,0.19 -0.12,0.34 -0.26,0.34c-0.15,0 -0.52,0.29 -0.82,0.63c-0.38,0.43 -0.75,0.63 -1.17,0.63c-0.67,0 -1.5,0.7 -1.12,0.94c0.48,0.29 0.23,0.74 -0.42,0.74c-0.54,0 -0.62,0.06 -0.51,0.41c0.24,0.74 -1.19,2.73 -1.96,2.73c-0.42,0 -0.9,0.51 -2,2.1c-0.33,0.49 -0.86,1.04 -1.19,1.24c-0.32,0.19 -1.03,0.89 -1.57,1.55c-1.05,1.28 -1.65,1.5 -2.3,0.85c-0.28,-0.28 -0.42,-0.31 -0.7,-0.11c-0.19,0.14 -0.56,0.34 -0.82,0.45c-0.3,0.13 -0.47,0.39 -0.47,0.71c0,0.27 -0.28,0.85 -0.63,1.29c-0.34,0.44 -0.63,0.92 -0.63,1.09c0,0.36 -1.6,1.9 -2.25,2.17c-0.41,0.16 -0.47,0.35 -0.47,1.32c0,1.09 -0.04,1.16 -1.23,2.36c-0.68,0.68 -1.34,1.45 -1.48,1.71c-0.13,0.26 -0.36,0.47 -0.5,0.48c-0.24,0 -1.61,1.79 -2.23,2.92c-0.16,0.29 -0.65,0.89 -1.1,1.32c-0.44,0.43 -0.8,0.92 -0.8,1.07c0,0.16 -0.67,0.92 -1.49,1.68c-1.65,1.55 -2.31,1.74 -3.09,0.91c-0.25,-0.27 -0.46,-0.59 -0.46,-0.71c0,-0.13 -0.38,-0.27 -0.84,-0.31c-0.81,-0.08 -0.87,-0.04 -1.35,0.82c-0.28,0.49 -0.57,1.11 -0.65,1.37c-0.07,0.26 -0.45,1.13 -0.83,1.94c-0.73,1.55 -1.43,3.09 -1.93,4.27c-0.27,0.65 -0.26,0.74 0.15,1.18c0.39,0.41 0.53,0.45 1.05,0.25c0.43,-0.16 0.74,-0.16 1.12,0.01c0.46,0.21 0.53,0.39 0.61,1.67c0.07,1.12 0,1.54 -0.29,1.98c-0.37,0.55 -0.37,0.57 0.14,0.9c0.63,0.41 0.67,1.17 0.09,1.7c-0.31,0.28 -0.4,0.54 -0.31,0.94c0.14,0.64 -0.57,2.46 -1.03,2.64c-0.44,0.17 -0.8,1.29 -0.48,1.49c0.14,0.09 0.89,0.15 1.67,0.13c1.3,-0.03 1.46,0.01 1.77,0.48c0.18,0.29 0.6,0.66 0.93,0.83c0.33,0.17 0.79,0.68 1.02,1.13c0.5,0.99 0.76,1.17 1.17,0.84c0.39,-0.33 2.28,-0.16 2.77,0.25c0.51,0.44 2.52,1.22 3.12,1.22c0.82,0 1.33,0.69 1.19,1.62c-0.07,0.44 -0.21,0.89 -0.31,1c-0.26,0.29 -0.22,1.16 0.07,1.16c0.13,0 0.4,0.14 0.6,0.32c0.19,0.18 0.95,0.42 1.69,0.54c1.16,0.19 1.36,0.17 1.59,-0.14c0.41,-0.56 2.6,-0.48 3.36,0.12c0.32,0.25 0.89,0.58 1.27,0.74c0.37,0.16 0.68,0.37 0.68,0.48c0,0.11 0.38,0.25 0.84,0.33c0.47,0.07 1.05,0.34 1.3,0.59c0.49,0.48 2.47,0.78 2.47,0.37c0,-0.46 0.64,-0.43 1.17,0.06c0.49,0.46 0.71,0.51 1.95,0.46c0.77,-0.03 1.65,-0.12 1.96,-0.2c0.41,-0.11 0.78,-0.02 1.3,0.3c0.46,0.28 0.77,0.37 0.86,0.23c0.07,-0.12 0.31,-0.22 0.52,-0.22c0.41,0 1.68,-1.66 1.68,-2.19c0,-0.46 0.61,-0.95 1.17,-0.95c0.29,0 0.51,-0.12 0.51,-0.29c0,-0.16 0.14,-0.41 0.32,-0.55c0.17,-0.14 0.31,-0.47 0.31,-0.73c0,-0.26 0.24,-0.72 0.52,-1.03c0.33,-0.35 0.53,-0.82 0.53,-1.21c0,-0.46 0.12,-0.67 0.42,-0.75c0.27,-0.07 0.42,-0.28 0.42,-0.6c0,-0.33 0.19,-0.6 0.59,-0.8c1.12,-0.58 1.21,-0.89 0.46,-1.51c-0.69,-0.59 -0.59,-0.9 0.31,-0.93c0.74,-0.01 2.21,-1.54 2.68,-2.77c0.09,-0.23 0.36,-0.37 0.75,-0.37c0.54,0 0.64,-0.1 0.87,-0.94c0.15,-0.52 0.37,-0.96 0.5,-0.97c0.13,-0.01 0.36,-0.04 0.51,-0.05c0.15,-0.02 0.45,-0.26 0.66,-0.55c0.34,-0.44 0.46,-0.48 0.88,-0.28c0.86,0.42 1.64,0.46 1.86,0.09c0.18,-0.3 0.24,-0.28 0.57,0.14l0.38,0.47l1.09,-0.56c0.61,-0.31 1.1,-0.68 1.1,-0.82c0,-0.13 0.19,-0.49 0.42,-0.78c0.23,-0.29 0.42,-0.67 0.42,-0.84c0,-0.17 0.14,-0.58 0.31,-0.91c0.18,-0.33 0.32,-0.8 0.32,-1.05c0,-0.98 1.85,-2.24 2.98,-2.03c0.31,0.06 0.85,0.43 1.21,0.82c0.67,0.74 0.83,0.79 1.64,0.58c0.38,-0.11 0.46,-0.26 0.43,-0.82c-0.06,-0.79 0.29,-1.3 0.94,-1.4c0.39,-0.05 0.47,-0.23 0.56,-1.21c0.1,-1.13 0.12,-1.16 0.8,-1.22c0.5,-0.05 0.9,0.09 1.43,0.49c0.54,0.41 0.87,0.52 1.27,0.42c0.36,-0.09 0.66,-0.02 0.92,0.21c0.31,0.28 0.86,0.36 2.68,0.38c2.02,0.03 2.35,-0.02 2.76,-0.39c0.37,-0.34 0.44,-0.57 0.35,-1.22c-0.06,-0.44 -0.28,-0.99 -0.48,-1.22c-0.25,-0.27 -0.3,-0.47 -0.15,-0.56c0.12,-0.08 0.34,-0.63 0.49,-1.23c0.2,-0.77 0.42,-1.15 0.77,-1.31c0.32,-0.14 0.49,-0.4 0.49,-0.75c0,-0.38 0.11,-0.53 0.39,-0.53c0.54,0 1.14,-0.96 1.01,-1.63c-0.05,-0.3 -0.02,-0.69 0.08,-0.87c0.09,-0.18 0.23,-0.68 0.3,-1.11c0.14,-0.92 0.57,-1.21 1.75,-1.21c0.78,0 0.87,-0.06 1.27,-0.91c0.24,-0.49 0.44,-1.01 0.44,-1.15c0,-0.14 0.26,-0.37 0.58,-0.5c0.32,-0.14 0.74,-0.42 0.95,-0.63c0.28,-0.28 0.7,-0.38 1.6,-0.38c0.9,0 1.26,-0.08 1.35,-0.31c0.09,-0.23 0.45,-0.31 1.29,-0.31c1.26,0 2.98,-0.36 3.16,-0.66c0.06,-0.1 -0.13,-0.28 -0.42,-0.39c-0.6,-0.23 -0.7,-0.53 -0.24,-0.7c0.22,-0.09 0.27,-0.33 0.19,-0.87c-0.1,-0.6 -0.06,-0.74 0.22,-0.74c0.19,0 0.53,-0.31 0.76,-0.68c0.43,-0.7 0.42,-1.34 -0.03,-2.83c-0.2,-0.64 -0.27,-0.69 -1.15,-0.69c-1.06,0 -1.76,-0.28 -1.76,-0.72c0,-0.16 0.43,-0.53 0.94,-0.84c1.08,-0.63 1.46,-1.2 1.28,-1.91c-0.1,-0.4 -0.25,-0.49 -0.81,-0.47c-0.38,0.01 -0.89,-0.09 -1.14,-0.22c-0.57,-0.31 -1.88,-0.31 -2.06,-0.01c-0.08,0.13 -0.4,0.18 -0.73,0.11c-0.39,-0.07 -0.68,0 -0.86,0.21c-0.21,0.26 -0.59,0.31 -1.75,0.25c-1.24,-0.07 -1.52,-0.03 -1.79,0.3c-0.28,0.35 -0.42,0.36 -1.41,0.13c-0.96,-0.22 -1.15,-0.21 -1.49,0.1c-0.24,0.22 -0.74,0.35 -1.37,0.35c-0.92,0 -0.99,-0.04 -1.11,-0.63c-0.1,-0.52 -0.23,-0.63 -0.7,-0.63c-1.08,0 -1.52,-1.23 -0.72,-2.02c0.28,-0.28 0.56,-0.72 0.62,-0.98c0.1,-0.41 -0.03,-0.54 -0.96,-0.93c-0.7,-0.3 -1.11,-0.61 -1.19,-0.9c-0.09,-0.36 -0.23,-0.43 -0.66,-0.33c-1.89,0.42 -2.55,0.4 -3.08,-0.09c-0.65,-0.62 -0.65,-0.67 0.12,-1.11c0.68,-0.41 0.9,-1.14 0.26,-0.88c-0.85,0.35 -1.07,0.33 -1.62,-0.19c-0.61,-0.56 -0.95,-0.55 -0.95,0.05c0,0.19 -0.19,0.66 -0.42,1.03c-0.32,0.52 -0.56,0.69 -1.03,0.69c-0.34,0 -1.09,0.11 -1.67,0.24c-1.23,0.28 -1.7,0.05 -1.71,-0.85c0,-0.3 -0.13,-0.93 -0.29,-1.39c-0.25,-0.71 -0.41,-0.87 -1.1,-1.05c-1.14,-0.29 -1.33,-0.46 -1.33,-1.16c0,-0.48 -0.1,-0.62 -0.43,-0.62c-0.23,0 -0.76,-0.33 -1.16,-0.73c-0.4,-0.41 -0.87,-0.74 -1.03,-0.74c-0.17,0 -0.4,-0.19 -0.53,-0.42c-0.14,-0.26 -0.44,-0.42 -0.8,-0.42c-0.84,0 -1.38,-0.45 -1.26,-1.06c0.09,-0.46 0.02,-0.51 -0.76,-0.56c-0.47,-0.03 -0.95,-0.19 -1.08,-0.37c-0.13,-0.17 -0.44,-0.31 -0.68,-0.31c-0.25,0 -0.45,-0.14 -0.45,-0.3c0,-0.17 -0.21,-0.33 -0.47,-0.37c-0.5,-0.07 -0.5,-0.11 -0.2,-1.64c0.11,-0.55 0.27,-0.75 0.63,-0.8c0.73,-0.11 0.42,-0.55 -0.42,-0.63c-0.49,-0.04 -0.94,-0.27 -1.34,-0.68c-0.67,-0.71 -0.64,-0.7 -1.39,-0.29z"/>
   <path  id="palakkad"  d="m1089.37,322.48c-1.25,0.09 -1.34,0.59 -0.2,1.2c0.56,0.3 0.8,0.58 0.85,0.99c0.07,0.65 -0.04,0.71 -2.17,1.31c-0.69,0.2 -1.54,0.45 -1.9,0.55c-0.35,0.11 -1.13,0.19 -1.72,0.19c-0.85,0 -1.19,-0.11 -1.64,-0.52c-0.68,-0.64 -1.01,-0.65 -2.22,-0.12c-0.6,0.27 -1.17,0.75 -1.61,1.37c-0.7,0.97 -1.25,1.18 -1.69,0.66c-0.13,-0.17 -0.41,-0.25 -0.62,-0.2c-0.21,0.06 -0.93,0 -1.61,-0.12c-1.01,-0.19 -1.3,-0.18 -1.71,0.09c-0.26,0.18 -0.48,0.48 -0.49,0.68c0,0.2 -0.33,0.68 -0.73,1.08c-0.5,0.48 -0.78,0.98 -0.87,1.53c-0.13,0.85 -0.53,1.42 -1,1.42c-0.14,0 -0.39,0.38 -0.54,0.84l-0.28,0.84l-1.94,0l-1.95,0l-0.06,0.68c-0.07,0.67 -0.1,0.69 -1.16,0.75c-1,0.06 -1.13,0.12 -1.57,0.84c-0.94,1.54 -1.64,2.14 -2.49,2.14c-0.52,0 -0.82,0.11 -0.91,0.33c-0.08,0.2 -0.34,0.31 -0.7,0.29c-0.97,-0.06 -1.1,-0.01 -1.1,0.43c0,0.36 -0.14,0.41 -1.03,0.41c-1.02,0 -1.04,0.02 -1.53,0.96c-0.89,1.75 -1.11,2.11 -1.69,2.84c-0.49,0.62 -0.62,0.68 -0.97,0.46c-0.48,-0.29 -0.66,-0.16 -0.66,0.47c0,0.26 -0.2,0.6 -0.44,0.76c-0.41,0.27 -0.43,0.38 -0.23,1.23c0.12,0.52 0.29,1.15 0.37,1.41c0.11,0.36 0.06,0.47 -0.2,0.47c-0.19,0 -0.45,0.24 -0.58,0.53c-0.14,0.29 -0.32,0.52 -0.41,0.52c-0.09,0 -0.29,0.26 -0.44,0.57c-0.18,0.39 -0.51,0.63 -1.04,0.75c-0.55,0.13 -0.8,0.32 -0.89,0.67c-0.07,0.27 -0.17,0.62 -0.23,0.78c-0.08,0.21 0.06,0.29 0.47,0.28c0.43,0 0.59,0.1 0.61,0.41c0.02,0.23 0.04,0.54 0.05,0.69c0.02,0.14 0.25,0.26 0.52,0.26c1.17,0 1.61,1.64 0.64,2.41l-0.54,0.43l0.34,1.06c0.29,0.88 0.46,1.08 1.02,1.25c0.52,0.15 0.69,0.34 0.77,0.83c0.1,0.55 0.21,0.63 0.9,0.69c0.65,0.05 0.78,0.14 0.78,0.54c0,1 -0.47,2.98 -0.8,3.34c-0.29,0.33 -0.29,0.41 -0.03,0.57c0.17,0.11 0.6,0.2 0.96,0.2c0.78,0 1.34,0.56 1.34,1.34c0,0.72 0.24,1.18 1.05,1.98c0.67,0.68 0.66,1.19 -0.03,1.41c-0.29,0.09 -0.39,0.29 -0.34,0.69l0.05,0.56l-1.88,0.07c-1.04,0.03 -2.84,-0.05 -3.99,-0.19c-1.15,-0.13 -2.28,-0.25 -2.5,-0.27c-0.31,-0.02 -0.5,0.22 -0.77,0.98c-0.54,1.48 -0.72,1.63 -1.74,1.48c-1.38,-0.21 -2.15,-0.79 -2.59,-1.98l-0.39,-1.05l-0.79,0.53c-0.95,0.65 -1.45,0.67 -2.26,0.09c-0.57,-0.4 -0.65,-0.41 -0.99,-0.1c-0.21,0.19 -0.51,0.34 -0.68,0.34c-0.16,0 -0.88,0.21 -1.59,0.46c-1.05,0.38 -1.38,0.42 -1.78,0.22c-0.27,-0.13 -1.1,-0.29 -1.85,-0.35c-0.75,-0.06 -1.71,-0.17 -2.14,-0.24l-0.77,-0.14l0.11,1.14c0.15,1.43 -0.19,1.84 -1.48,1.84c-0.75,0 -0.94,0.09 -1.14,0.53c-0.27,0.6 -0.43,0.64 -0.99,0.21c-0.53,-0.4 -1.23,-0.4 -1.56,0c-0.29,0.34 -1.79,0.43 -1.98,0.12c-0.12,-0.19 1.09,-1.57 1.51,-1.72c0.12,-0.04 0.25,-0.46 0.29,-0.92c0.05,-0.72 0.01,-0.83 -0.34,-0.8c-0.64,0.05 -1.16,-0.32 -1.16,-0.85c0,-0.28 -0.25,-0.66 -0.63,-0.94c-0.35,-0.25 -0.63,-0.59 -0.63,-0.74c0,-0.27 -0.82,-1.45 -1.59,-2.32c-0.36,-0.39 -0.37,-0.39 -0.54,0.08c-0.14,0.36 -0.29,0.45 -0.66,0.36c-0.33,-0.09 -0.55,0 -0.73,0.29c-0.53,0.85 -2.98,0.32 -2.98,-0.64c0,-0.44 -0.51,-0.17 -1.62,0.84c-0.63,0.58 -1.26,1.04 -1.39,1.03c-1.07,-0.13 -3.31,0.06 -3.38,0.28c-0.04,0.15 -0.14,0.53 -0.21,0.87c-0.13,0.56 -0.18,0.59 -0.95,0.47c-1.1,-0.18 -1.47,0 -1.47,0.72c0,0.39 -0.15,0.68 -0.42,0.83c-0.38,0.2 -0.42,0.43 -0.42,2.4c0,1.96 0.04,2.19 0.4,2.31c0.94,0.3 0.68,1.24 -0.41,1.48c-0.48,0.1 -0.62,0.25 -0.62,0.64c0,0.28 -0.19,0.62 -0.42,0.77c-0.54,0.34 -0.53,0.64 0.04,0.89c0.44,0.2 0.61,0.55 0.89,1.84c0.16,0.71 0.28,0.71 1.3,0.01c0.72,-0.49 1.02,-0.56 2.6,-0.57c1.26,-0.02 2.07,0.09 2.78,0.36c0.96,0.38 0.99,0.41 0.99,1.26c0,0.98 0.14,1.26 0.71,1.47c0.33,0.12 0.37,0.28 0.24,1.1c-0.14,0.93 -0.13,0.95 0.3,0.72c0.25,-0.13 0.8,-0.21 1.22,-0.17c0.77,0.06 0.78,0.08 0.71,0.85c-0.09,1.01 0.46,1.31 1.06,0.58c0.38,-0.48 0.41,-0.48 1.11,-0.15c0.72,0.34 1.36,1.41 1.36,2.27c0,0.56 0.85,0.52 1,-0.04c0.09,-0.35 0.22,-0.41 0.65,-0.3c0.94,0.24 0.98,0.22 0.92,-0.36c-0.07,-0.67 0.39,-0.86 1.85,-0.76c0.84,0.06 0.94,0.13 1,0.64c0.07,0.58 0.79,1.29 1.12,1.09c0.1,-0.06 0.18,-0.33 0.18,-0.6c0,-0.28 0.38,-0.98 0.85,-1.58l0.85,-1.07l1.18,0.06c1.1,0.06 1.23,0.12 1.67,0.8c0.26,0.4 0.61,0.9 0.77,1.12c0.17,0.21 0.36,0.71 0.44,1.12l0.14,0.74l1.12,-0.14c0.88,-0.11 1.25,-0.07 1.67,0.21c0.43,0.28 0.6,0.3 0.85,0.09c0.17,-0.14 0.31,-0.38 0.31,-0.54c0,-0.21 0.25,-0.25 1.02,-0.16c0.97,0.12 1.03,0.1 1.16,-0.43c0.11,-0.42 0.27,-0.55 0.72,-0.55c0.32,0 0.79,0.15 1.05,0.34c0.68,0.48 0.44,1.61 -0.59,2.71c-0.89,0.94 -1.32,2.53 -0.75,2.74c0.41,0.16 0.75,1.21 0.75,2.32c0,0.97 0.16,1.09 0.9,0.62c0.7,-0.44 2.96,-0.63 3.26,-0.27c0.13,0.16 0.18,0.35 0.11,0.42c-0.07,0.07 0.12,0.55 0.42,1.06c0.95,1.62 0.73,1.87 -1.41,1.67c-1.02,-0.1 -1.58,-0.03 -2.36,0.26c-1.23,0.46 -1.33,0.59 -1.34,1.63c-0.01,1.44 -1.12,1.93 -2.94,1.29c-1.18,-0.42 -1.32,-0.4 -1.6,0.22c-0.21,0.44 -0.19,0.55 0.13,0.72c0.21,0.11 0.43,0.43 0.5,0.71c0.1,0.4 0.31,0.54 0.92,0.63c2,0.29 2.92,0.49 3.35,0.72c0.56,0.31 0.86,1.58 0.48,2.03c-0.21,0.26 -0.17,0.35 0.26,0.51c0.28,0.11 0.72,0.54 0.96,0.95c0.25,0.41 0.71,0.85 1.03,0.98c0.32,0.12 0.74,0.37 0.94,0.55c0.3,0.26 0.66,0.3 1.85,0.19c1.29,-0.12 1.49,-0.09 1.59,0.23c0.39,1.23 0.67,1.43 2.42,1.82c0.72,0.16 0.85,0.56 0.58,1.76c-0.13,0.54 -0.23,2.04 -0.23,3.32c0.01,2.15 -0.03,2.39 -0.5,3.03c-0.38,0.51 -0.45,0.75 -0.28,0.96c0.13,0.15 0.2,0.65 0.15,1.12l-0.08,0.84l1.12,0c0.74,0 1.15,-0.09 1.22,-0.28c0.12,-0.31 1.29,-0.73 2.29,-0.82c0.48,-0.04 0.71,-0.22 1,-0.79c0.38,-0.74 0.75,-0.84 1.05,-0.29c0.1,0.16 0.51,0.44 0.92,0.61c0.72,0.3 0.75,0.35 0.64,1.15l-0.11,0.84l1.5,0c0.82,0.01 1.69,0.05 1.92,0.11c0.31,0.08 0.55,-0.08 0.92,-0.63c0.27,-0.4 0.64,-0.74 0.8,-0.74c0.17,0 0.58,-0.16 0.91,-0.35c0.55,-0.33 0.74,-0.33 2.86,0.01c1.25,0.19 2.88,0.44 3.63,0.55c0.75,0.11 1.61,0.25 1.92,0.33c0.4,0.09 0.66,0.02 0.94,-0.29c0.22,-0.23 0.68,-0.49 1.02,-0.57c0.35,-0.09 0.88,-0.28 1.18,-0.43c0.5,-0.25 0.64,-0.21 1.59,0.41c0.57,0.38 1.23,0.87 1.45,1.1c0.22,0.22 0.83,0.53 1.34,0.7c0.52,0.16 1.23,0.49 1.58,0.74c0.34,0.24 0.88,0.55 1.2,0.69c0.45,0.19 0.58,0.39 0.58,0.88c0,0.61 0.04,0.64 0.91,0.64c0.69,0 1.02,-0.12 1.4,-0.53c0.27,-0.29 0.61,-0.52 0.77,-0.52c0.15,0 0.27,-0.2 0.27,-0.44c0,-0.3 0.12,-0.41 0.37,-0.36c0.2,0.04 0.54,-0.14 0.76,-0.42c0.39,-0.48 0.39,-0.49 -0.16,-1.06c-0.63,-0.66 -0.67,-0.92 -0.23,-1.29c0.44,-0.36 0.39,-0.63 -0.11,-0.63c-0.23,0 -0.42,-0.13 -0.42,-0.28c0,-0.19 -0.17,-0.25 -0.51,-0.19c-0.35,0.07 -0.59,-0.03 -0.78,-0.34c-0.15,-0.25 -0.39,-0.45 -0.53,-0.45c-0.44,0 -1.44,-1.12 -1.71,-1.93c-0.28,-0.84 -0.19,-1.21 0.29,-1.21c0.17,0 0.36,-0.24 0.43,-0.53c0.19,-0.75 1.05,-1.38 1.61,-1.17c0.51,0.19 1.71,-0.41 1.92,-0.95c0.09,-0.25 0.31,-0.29 0.91,-0.2c1.07,0.17 1.35,-0.07 1.47,-1.31c0.09,-0.98 0.07,-1.05 -0.4,-1.12c-0.71,-0.1 -0.77,-1.01 -0.11,-1.72c0.27,-0.31 0.6,-0.55 0.73,-0.55c0.29,0 0.38,-0.16 0.55,-0.99c0.14,-0.62 0.09,-0.7 -0.68,-1.09l-0.82,-0.42l0.25,-1c0.25,-0.97 0.29,-1.01 1.08,-1.07c0.6,-0.05 0.95,-0.23 1.34,-0.68c0.43,-0.51 0.7,-0.63 1.5,-0.66c0.78,-0.02 1.11,0.08 1.64,0.53c0.6,0.5 1.05,0.7 1.05,0.46c0,-0.05 -0.19,-0.42 -0.42,-0.82c-0.36,-0.61 -0.59,-0.74 -1.42,-0.87c-0.54,-0.08 -1.16,-0.24 -1.36,-0.35c-0.42,-0.22 -1.43,0.04 -2.7,0.7c-0.42,0.21 -0.93,0.33 -1.12,0.25c-0.19,-0.07 -0.71,-0.01 -1.15,0.13c-1.01,0.34 -1.81,0.15 -2.15,-0.51c-0.15,-0.28 -0.59,-0.72 -0.99,-0.99c-0.96,-0.65 -1.63,-1.9 -1.8,-3.39c-0.13,-1.06 -0.28,-1.37 -1.11,-2.31c-0.52,-0.59 -1.1,-1.19 -1.27,-1.32c-0.31,-0.23 -0.38,-1.93 -0.11,-2.84c0.07,-0.24 -0.04,-0.37 -0.38,-0.42c-0.39,-0.05 -0.49,-0.22 -0.55,-0.85c-0.05,-0.68 0.04,-0.88 0.61,-1.36c0.77,-0.65 1.58,-1.11 1.96,-1.11c0.14,0 0.48,-0.23 0.75,-0.52c0.44,-0.47 0.61,-0.51 1.47,-0.4c0.86,0.11 1.16,0.04 2.41,-0.63c0.78,-0.41 1.59,-0.75 1.8,-0.75c0.2,0 0.43,-0.19 0.51,-0.42c0.15,-0.5 0.89,-0.56 1.48,-0.11c0.57,0.43 1.2,0.39 1.5,-0.09c0.22,-0.35 0.42,-0.39 1.39,-0.29c1.01,0.11 1.17,0.07 1.38,-0.33c0.13,-0.24 0.45,-0.44 0.7,-0.45c0.26,0 0.65,-0.14 0.87,-0.31c0.23,-0.17 0.59,-0.31 0.81,-0.31c0.21,0 0.53,-0.14 0.71,-0.32c0.17,-0.17 0.63,-0.31 1.01,-0.31c0.61,0 0.74,-0.09 0.93,-0.68c0.21,-0.65 1.43,-1.84 1.88,-1.84c0.11,0 0.35,-0.3 0.54,-0.66c0.32,-0.65 0.31,-0.69 -0.23,-1.26c-0.51,-0.53 -0.55,-0.67 -0.37,-1.38c0.18,-0.74 0.24,-0.79 1.03,-0.81c1.3,-0.03 1.36,-0.05 1.61,-0.61c0.2,-0.43 0.36,-0.52 0.79,-0.44c0.29,0.06 1.07,0.16 1.73,0.23l1.19,0.14l0.24,-0.91c0.13,-0.5 0.33,-1.23 0.45,-1.64c0.29,-1.02 -0.12,-3.44 -0.67,-3.99c-0.22,-0.23 -0.41,-0.55 -0.41,-0.71c0,-0.17 -0.25,-0.59 -0.54,-0.95c-0.45,-0.53 -0.52,-0.78 -0.42,-1.43c0.12,-0.71 0.08,-0.82 -0.5,-1.14c-0.64,-0.36 -1.69,-2.3 -1.69,-3.12c0,-0.21 -0.09,-0.44 -0.21,-0.51c-0.11,-0.07 -0.21,-0.45 -0.21,-0.85c0,-0.68 0.04,-0.72 0.71,-0.72l0.71,0l0.14,-1.25c0.08,-0.69 0.23,-1.31 0.34,-1.38c0.11,-0.07 0.2,-0.38 0.2,-0.69c0,-0.46 -0.16,-0.63 -0.89,-0.93c-0.96,-0.39 -2.16,-0.48 -2.35,-0.18c-0.12,0.19 -3.91,0.11 -4.57,-0.1c-0.22,-0.07 -0.37,-0.32 -0.37,-0.63c0,-0.28 -0.09,-0.51 -0.21,-0.51c-0.36,0 -0.23,-0.73 0.21,-1.1c0.58,-0.49 0.55,-1.32 -0.05,-1.52c-0.46,-0.15 -0.45,-0.16 0.11,-0.25c0.32,-0.05 0.7,-0.27 0.84,-0.5c0.27,-0.43 0.9,-0.52 1.4,-0.2c0.64,0.4 0.9,-1.23 0.33,-2c-0.41,-0.54 -0.4,-1.12 0.03,-1.6c0.32,-0.36 0.32,-0.4 -0.02,-0.65c-0.3,-0.22 -0.34,-0.45 -0.22,-1.36c0.1,-0.72 0.25,-1.09 0.44,-1.09c0.36,0 0.36,-0.29 -0.01,-1.12c-0.41,-0.91 -1.45,-4.55 -1.45,-5.07c0,-0.23 0.07,-1.33 0.16,-2.44c0.14,-1.72 0.12,-2.1 -0.17,-2.51c-0.19,-0.27 -0.34,-0.71 -0.34,-0.97c0,-0.27 -0.19,-0.64 -0.42,-0.84c-0.49,-0.42 -0.56,-1.22 -0.12,-1.39c0.16,-0.06 0.32,-0.33 0.36,-0.59c0.05,-0.35 0.22,-0.5 0.57,-0.51c1.01,-0.06 1.02,-0.93 0.01,-1.35c-0.34,-0.14 -0.61,-0.29 -0.61,-0.33c0,-0.24 1.67,-1.76 1.94,-1.76c0.37,0 1.24,-1.63 0.97,-1.8c-0.1,-0.06 -0.19,-0.42 -0.19,-0.8c0,-0.52 -0.13,-0.75 -0.52,-0.97c-0.37,-0.19 -0.53,-0.45 -0.53,-0.87c0,-0.79 -0.33,-0.75 -1.18,0.16l-0.71,0.75l-0.94,-0.46c-0.52,-0.25 -0.94,-0.59 -0.94,-0.75c0,-0.49 -1.74,-0.39 -2.2,0.13c-0.49,0.53 -0.65,0.52 -1.22,-0.06c-0.37,-0.38 -0.65,-0.46 -1.46,-0.4l0,-0.01z"/>
   <path  id="kottayam"  d="m1059.51,212.1c-0.07,0.17 -0.06,0.57 0.02,0.89c0.18,0.74 0.2,1 0.15,2.2c-0.03,0.91 -0.08,0.99 -0.57,0.99c-0.29,0 -0.58,0.15 -0.65,0.32c-0.21,0.55 0.13,1.75 0.69,2.41c0.29,0.35 0.48,0.77 0.42,0.94c-0.07,0.17 -0.02,0.37 0.1,0.44c0.12,0.07 0.16,0.35 0.1,0.61c-0.1,0.37 -0.02,0.51 0.32,0.6c0.39,0.1 0.43,0.21 0.29,0.91c-0.21,1.16 -0.46,1.37 -1.51,1.29c-0.67,-0.05 -0.9,0 -0.9,0.22c0,0.21 -0.2,0.26 -0.74,0.17c-0.69,-0.11 -0.73,-0.08 -0.73,0.46c0,0.32 -0.11,1.12 -0.24,1.78c-0.22,1.09 -0.32,1.24 -1.05,1.62c-0.78,0.39 -0.81,0.45 -0.81,1.48l0,1.07l-0.7,-0.11c-0.38,-0.06 -1.11,-0.3 -1.62,-0.53c-0.51,-0.23 -1.28,-0.47 -1.7,-0.53c-0.7,-0.1 -0.82,-0.04 -1.26,0.61c-0.6,0.88 -0.92,0.89 -1.97,0.09c-0.46,-0.34 -0.87,-0.62 -0.93,-0.63c-0.19,-0.01 -0.03,3.37 0.19,4.05c0.22,0.66 0.29,2.55 0.25,6.92c-0.01,1.24 0.06,2.63 0.16,3.07c0.32,1.43 0.11,1.89 -1.16,2.45c-0.62,0.27 -1.3,0.5 -1.51,0.5c-0.34,0 -0.36,0.11 -0.16,1.41c0.29,2.02 0.29,6.01 0,6.37c-0.14,0.16 -0.41,0.86 -0.6,1.55c-0.2,0.69 -0.44,1.35 -0.55,1.46c-0.46,0.49 -0.16,1.37 0.86,2.55c0.58,0.66 1.05,1.28 1.05,1.38c0,0.1 -0.21,0.47 -0.46,0.82c-0.53,0.71 -0.35,1.29 0.43,1.41c0.35,0.05 0.45,-0.04 0.46,-0.42c0.01,-0.75 0.23,-0.92 1.21,-0.94c0.61,-0.01 1.05,-0.16 1.38,-0.46c0.27,-0.26 0.75,-0.45 1.13,-0.45c0.77,0 3.22,1.26 4.17,2.15c0.63,0.59 0.7,0.61 1.41,0.35c0.58,-0.21 0.86,-0.21 1.28,-0.02c0.3,0.14 0.72,0.25 0.93,0.25c0.21,0 0.5,0.14 0.65,0.31c0.17,0.21 0.64,0.32 1.35,0.32l1.1,0l0.27,-1.47c0.28,-1.45 0.36,-1.56 1.13,-1.48c1.05,0.11 2.23,-1.1 2.23,-2.3c0,-0.34 0.15,-0.42 0.82,-0.42c1.03,0 1.52,0.44 1.36,1.23c-0.17,0.85 0.36,1.23 1.26,0.91c1.09,-0.4 1.14,-0.34 1.29,1.19l0.14,1.44l1.07,0.13c0.75,0.09 1.16,0.04 1.39,-0.16c0.47,-0.41 1.12,-0.56 1.46,-0.35c0.26,0.16 0.25,0.27 -0.05,0.73c-0.48,0.73 -0.45,0.87 0.29,1.18c0.66,0.27 0.93,0.18 0.93,-0.35c0,-0.27 0.36,-0.53 1.64,-1.17c0.81,-0.4 2.42,-0.44 2.96,-0.09c0.49,0.32 0.58,0.32 1.25,0c0.4,-0.19 0.78,-0.53 0.84,-0.76c0.09,-0.35 0.22,-0.39 0.83,-0.28c0.65,0.13 0.73,0.08 0.85,-0.39c0.09,-0.34 0.28,-0.53 0.55,-0.53c0.23,0 0.42,-0.09 0.42,-0.21c0,-0.11 0.14,-0.21 0.32,-0.21c0.18,0 0.56,-0.23 0.85,-0.52c0.38,-0.38 0.75,-0.53 1.34,-0.53c0.63,0 0.84,-0.09 0.95,-0.42c0.15,-0.48 0.91,-0.73 1.58,-0.52c0.38,0.12 0.43,0.25 0.32,0.86c-0.12,0.61 -0.08,0.71 0.26,0.71c0.22,0 0.56,-0.19 0.77,-0.41c0.21,-0.23 0.72,-0.48 1.13,-0.55c1.17,-0.21 2.8,-0.94 3.43,-1.54c1.02,-0.97 1.31,-1.25 1.53,-1.47c0.11,-0.12 0.5,-0.45 0.86,-0.74c0.36,-0.29 0.71,-0.81 0.78,-1.15c0.09,-0.46 0.35,-0.74 0.94,-1.04c0.5,-0.26 0.92,-0.67 1.09,-1.07c0.14,-0.35 0.54,-1.03 0.88,-1.5c0.54,-0.74 0.7,-0.84 1.23,-0.73c0.47,0.09 0.66,0.03 0.84,-0.31c0.12,-0.24 0.57,-0.57 1,-0.74c1.5,-0.59 1.67,-0.74 1.81,-1.52c0.08,-0.41 0.26,-0.9 0.4,-1.07c0.14,-0.17 0.47,-0.88 0.74,-1.57c0.27,-0.7 0.7,-1.45 0.95,-1.68c0.94,-0.85 1.4,-1.89 1.25,-2.83c-0.12,-0.74 -0.07,-0.95 0.39,-1.43c0.55,-0.59 1.2,-1.75 1.2,-2.13c0,-0.31 -0.33,-0.27 -0.67,0.07c-0.16,0.16 -0.6,0.44 -0.97,0.64c-0.37,0.19 -0.78,0.58 -0.91,0.85c-0.13,0.28 -0.36,0.56 -0.53,0.62c-0.4,0.15 -1.52,-0.45 -1.66,-0.89c-0.06,-0.2 -0.2,-0.52 -0.3,-0.72c-0.25,-0.46 -0.25,-1.13 -0.02,-1.59c0.11,-0.19 0.23,-0.89 0.28,-1.55c0.09,-1.15 0.07,-1.21 -0.46,-1.39c-0.53,-0.19 -0.55,-0.25 -0.52,-1.64c0.02,-0.79 0.09,-1.58 0.17,-1.75c0.07,-0.17 0.15,-0.79 0.19,-1.36c0.06,-1.05 0.06,-1.05 0.82,-1.12c0.7,-0.06 0.78,-0.13 0.91,-0.82c0.15,-0.78 1.06,-1.94 1.53,-1.94c0.15,0 0.35,-0.23 0.46,-0.52c0.26,-0.69 0.93,-1.03 1.46,-0.75c0.6,0.32 0.81,0.27 0.97,-0.26c0.23,-0.76 0.75,-1.2 1.4,-1.2c0.44,0 0.65,0.12 0.73,0.42c0.06,0.23 0.24,0.42 0.4,0.42c0.17,0 0.29,0.22 0.29,0.52c0,0.58 0.36,0.71 0.55,0.21c0.07,-0.17 0.26,-0.31 0.42,-0.31c0.49,0 1.55,-1.88 1.55,-2.75c0,-0.93 -0.27,-1.18 -1.48,-1.36c-0.73,-0.11 -1.12,-0.33 -1.78,-1.02c-0.46,-0.49 -1.07,-1.01 -1.34,-1.15c-0.4,-0.22 -0.47,-0.38 -0.37,-0.98c0.06,-0.39 0.03,-0.76 -0.08,-0.83c-0.11,-0.06 -0.2,-0.28 -0.2,-0.48c0,-0.55 -0.45,-1.04 -1.1,-1.2c-0.52,-0.12 -0.57,-0.08 -0.57,0.43c0,0.52 -0.07,0.57 -0.64,0.48c-0.51,-0.07 -0.8,0.06 -1.52,0.73c-0.92,0.86 -3.03,2.04 -3.63,2.04c-0.19,0 -0.82,0.26 -1.39,0.57c-1.02,0.56 -1.06,0.56 -1.34,0.17c-0.16,-0.22 -0.29,-0.52 -0.29,-0.67c0,-0.36 -0.31,-0.35 -0.62,0.02c-0.35,0.42 -1.66,0.62 -2.03,0.32c-0.24,-0.21 -0.4,-0.16 -0.81,0.22c-0.4,0.38 -0.65,0.45 -1.23,0.34c-0.61,-0.12 -0.73,-0.07 -0.83,0.31c-0.07,0.27 -0.22,0.39 -0.36,0.29c-0.13,-0.08 -0.2,-0.32 -0.14,-0.54c0.06,-0.24 -0.01,-0.4 -0.18,-0.4c-0.16,0 -0.41,-0.18 -0.57,-0.4c-0.19,-0.28 -0.38,-0.35 -0.57,-0.23c-0.18,0.11 -0.51,0.07 -0.84,-0.1c-0.3,-0.15 -0.9,-0.35 -1.33,-0.43c-0.74,-0.14 -0.8,-0.11 -1.04,0.51c-0.14,0.39 -0.39,0.65 -0.61,0.65c-0.28,0 -0.4,0.25 -0.5,1.04c-0.18,1.3 -0.62,1.74 -1.69,1.65c-0.7,-0.06 -0.82,-0.15 -0.99,-0.75c-0.15,-0.52 -0.31,-0.68 -0.69,-0.68c-0.28,0 -0.66,-0.19 -0.86,-0.42c-0.45,-0.52 -0.89,-0.54 -0.89,-0.03c0,0.21 -0.18,0.55 -0.39,0.74c-0.25,0.22 -0.36,0.54 -0.3,0.86c0.11,0.56 0.24,0.51 -2.38,0.96c-0.82,0.14 -1.81,0.19 -2.2,0.1c-0.39,-0.08 -1.09,-0.18 -1.55,-0.22c-0.46,-0.04 -0.91,-0.08 -1,-0.09c-0.08,0 -0.15,-0.29 -0.15,-0.63c0,-0.76 -0.33,-0.99 -0.8,-0.57c-0.48,0.43 -1.09,0.09 -1.09,-0.6c0,-0.46 -0.09,-0.52 -0.83,-0.52c-0.45,0 -0.88,-0.08 -0.94,-0.19c-0.07,-0.1 -0.3,-0.14 -0.51,-0.08c-0.29,0.07 -0.43,-0.05 -0.53,-0.46c-0.1,-0.37 -0.39,-0.66 -0.89,-0.87c-0.63,-0.26 -0.73,-0.38 -0.6,-0.77c0.09,-0.25 0.2,-0.86 0.26,-1.36c0.09,-0.87 0.08,-0.9 -0.43,-0.77c-0.52,0.13 -1.58,-0.28 -2.28,-0.89c-0.5,-0.44 -1.03,-0.27 -1.43,0.46c-0.46,0.83 -1.11,0.91 -1.79,0.23c-0.3,-0.3 -0.71,-0.54 -0.92,-0.54c-0.21,0 -0.5,-0.14 -0.65,-0.32c-0.14,-0.17 -0.44,-0.31 -0.65,-0.31c-0.22,0 -0.59,-0.19 -0.82,-0.42c-0.5,-0.5 -0.6,-0.52 -0.76,-0.1z"/>
   <path  id="Thiruvananthapuram"  d="m1128.46,80.72c-0.22,0.25 -1.03,0.86 -1.81,1.37c-0.77,0.5 -1.95,1.53 -2.62,2.28c-1.36,1.54 -3.73,3.24 -4.5,3.24c-0.39,0 -0.6,0.19 -0.88,0.83c-0.38,0.88 -1.61,1.81 -2.11,1.62c-0.17,-0.07 -0.64,0.2 -1.05,0.59c-0.67,0.63 -0.75,0.82 -0.75,1.78c0,1.23 -0.31,1.94 -1.24,2.82c-0.35,0.34 -0.65,0.71 -0.65,0.81c0,0.11 -0.66,0.81 -1.48,1.57c-0.81,0.76 -1.61,1.64 -1.78,1.95c-0.16,0.32 -1.34,1.7 -2.63,3.06c-1.28,1.37 -2.62,2.92 -2.99,3.46c-0.36,0.54 -1.25,1.72 -1.98,2.62c-0.72,0.91 -1.88,2.36 -2.57,3.22c-0.69,0.87 -1.92,2.38 -2.73,3.36c-0.82,0.98 -1.62,2.05 -1.8,2.38c-0.18,0.34 -0.67,0.95 -1.09,1.38c-0.76,0.76 -2.27,2.64 -4.8,5.95c-2,2.62 -4.12,4.97 -4.48,4.97c-0.1,0 -0.57,0.68 -1.05,1.52c-0.48,0.84 -1.19,2 -1.58,2.58c-0.39,0.59 -0.71,1.14 -0.71,1.24c0,0.09 -0.33,0.53 -0.73,0.98c-0.86,0.95 -0.92,1.21 -0.23,1.08c0.72,-0.14 1.38,0.28 1.38,0.89c0,0.46 0.09,0.52 0.84,0.52c0.67,0 1,0.15 1.59,0.71c0.71,0.67 0.79,0.69 1.32,0.42c0.3,-0.16 1.13,-0.29 1.84,-0.29c1.08,0 1.33,-0.07 1.59,-0.46c0.33,-0.5 0.79,-0.37 0.79,0.21c0,0.21 0.27,0.47 0.63,0.6c0.48,0.18 0.63,0.37 0.63,0.8c0,0.51 0.06,0.55 0.62,0.42c0.88,-0.19 1.55,0.22 1.42,0.87c-0.07,0.35 0.03,0.57 0.3,0.72c0.62,0.33 0.47,0.71 -0.69,1.75c-1.05,0.94 -1.07,0.98 -0.7,1.38c0.44,0.5 1.12,0.54 1.69,0.11c0.56,-0.43 1.06,-0.39 1.41,0.1c0.16,0.23 0.34,0.36 0.41,0.3c0.07,-0.07 0.31,-0.02 0.55,0.1c0.38,0.21 0.44,0.16 0.57,-0.56c0.16,-0.89 0.38,-1.09 1.17,-1.1c0.84,0 1.85,-0.65 1.85,-1.19c0,-0.73 0.38,-1.54 0.78,-1.66c0.21,-0.07 1.02,-0.4 1.82,-0.73c1.63,-0.69 2.06,-0.75 2.43,-0.3c0.15,0.18 0.61,0.32 1.08,0.32c0.66,0 0.81,-0.08 0.81,-0.41c0,-0.22 0.38,-0.79 0.84,-1.27c0.46,-0.48 0.84,-0.92 0.84,-0.96c0,-0.05 -0.19,-0.28 -0.42,-0.51c-0.6,-0.6 -0.52,-1.03 0.26,-1.36c0.38,-0.15 0.89,-0.54 1.14,-0.85c0.55,-0.68 1.26,-0.6 2.09,0.23c0.47,0.46 0.64,0.51 1.54,0.39c1.26,-0.17 2.21,0.31 2.39,1.2c0.11,0.54 0.21,0.6 0.94,0.6c0.77,0 0.85,-0.06 1.27,-0.94c0.43,-0.92 0.47,-0.95 1.39,-0.95c1.05,0 2.19,0.48 2.19,0.92c0,0.16 -0.18,0.52 -0.41,0.82c-0.24,0.29 -0.42,0.61 -0.42,0.71c0,0.1 -0.18,0.29 -0.4,0.43c-0.29,0.17 -0.42,0.54 -0.47,1.31c-0.07,0.96 -0.04,1.06 0.37,1.06c0.62,0 0.99,0.51 0.83,1.15c-0.11,0.42 -0.03,0.57 0.37,0.76c0.28,0.13 0.61,0.45 0.73,0.72c0.37,0.8 1.64,1.07 3.13,0.65c0.68,-0.19 1.61,-0.35 2.06,-0.35c0.56,0 0.95,-0.13 1.18,-0.4c0.19,-0.22 0.88,-0.57 1.53,-0.78c0.65,-0.21 1.28,-0.54 1.39,-0.75c0.11,-0.21 0.41,-0.38 0.68,-0.38c0.33,0 0.64,-0.25 0.99,-0.78c0.38,-0.59 0.72,-0.84 1.36,-1c0.46,-0.11 1.22,-0.5 1.67,-0.86c0.46,-0.36 1.26,-0.87 1.78,-1.13c0.51,-0.27 1.53,-0.85 2.24,-1.31c1.62,-1.02 1.97,-1.84 1.29,-3c-0.34,-0.56 -0.57,-0.72 -1.05,-0.72c-0.35,0 -0.66,0.13 -0.73,0.31c-0.25,0.64 -1.34,0.21 -1.34,-0.53c0,-0.19 0.19,-0.52 0.42,-0.73c0.25,-0.22 0.42,-0.64 0.42,-1.02c0,-0.79 0.95,-2.2 1.6,-2.36c0.27,-0.07 0.54,-0.3 0.61,-0.52c0.07,-0.21 0.45,-0.78 0.85,-1.25c0.82,-0.98 0.91,-1.64 0.3,-2.19c-0.56,-0.5 -0.52,-0.74 0.22,-1.35c0.42,-0.36 0.62,-0.71 0.62,-1.12c0,-0.75 1.15,-2.04 1.81,-2.04c0.38,0 0.48,-0.14 0.53,-0.68c0.06,-0.57 0.19,-0.72 0.75,-0.88c0.65,-0.2 0.68,-0.25 0.69,-1.26c0,-0.96 0.08,-1.14 0.86,-1.9c1.31,-1.27 2.7,-3.53 2.7,-4.4c0,-0.51 0.16,-0.87 0.55,-1.23c0.53,-0.49 0.53,-0.52 0.15,-0.73c-0.57,-0.3 -1.57,-2.37 -1.7,-3.5c-0.1,-0.93 -0.11,-0.94 -0.89,-0.94c-0.47,0 -1,-0.17 -1.33,-0.43l-0.55,-0.44l-0.26,0.56c-0.29,0.64 -2.1,1.65 -2.64,1.47c-0.2,-0.06 -0.52,-0.4 -0.72,-0.74c-0.19,-0.35 -0.59,-0.73 -0.89,-0.84c-0.74,-0.28 -0.71,-1 0.05,-1.17c0.9,-0.21 1.13,-0.64 0.72,-1.34c-0.46,-0.8 -0.12,-1.53 0.97,-2.09c0.67,-0.34 0.84,-0.55 0.94,-1.2c0.08,-0.43 0.09,-0.83 0.04,-0.88c-0.05,-0.05 -0.53,0.03 -1.07,0.18c-0.94,0.27 -1,0.26 -1.37,-0.2c-0.22,-0.26 -0.39,-0.61 -0.39,-0.76c0,-0.16 -0.2,-0.47 -0.45,-0.7c-0.32,-0.3 -0.41,-0.58 -0.33,-0.99c0.14,-0.76 -0.62,-1.87 -1.05,-1.51c-0.43,0.36 -0.65,-0.01 -0.73,-1.17c-0.05,-0.84 -0.17,-1.11 -0.64,-1.46c-0.45,-0.33 -0.63,-0.37 -0.83,-0.18c-0.35,0.36 -1.74,0.32 -2.05,-0.05c-0.37,-0.45 -0.17,-1.05 0.37,-1.12c0.61,-0.09 0.62,-0.81 0.03,-1.81c-0.62,-1.05 -0.45,-1.24 0.62,-0.71c0.89,0.44 0.93,0.44 1.21,0.06c0.4,-0.54 0.35,-1.02 -0.14,-1.46c-0.23,-0.21 -0.42,-0.64 -0.42,-0.96c0,-0.32 -0.14,-0.62 -0.32,-0.7c-0.18,-0.07 -0.27,-0.22 -0.2,-0.33c0.14,-0.24 -0.48,-0.05 -0.89,0.26c-0.17,0.14 -0.58,0.05 -1.24,-0.26c-0.54,-0.25 -1.44,-0.53 -2,-0.62c-1.27,-0.2 -1.36,-0.29 -0.93,-0.94c0.32,-0.5 0.32,-0.54 -0.06,-0.75c-0.23,-0.11 -0.65,-0.21 -0.93,-0.21c-0.58,0 -1.09,-0.41 -1.29,-1.05c-0.17,-0.54 -0.36,-0.53 -0.86,0.03z"/>
   <path  id="Pathanamthitta" d="m1141.22,172.94c-0.49,0.2 -0.9,0.27 -1.22,0.21c-0.29,-0.06 -0.65,-0.01 -0.9,0.11c-0.24,0.12 -0.56,0.16 -0.78,0.11c-0.2,-0.06 -0.54,-0.05 -0.74,0.01c-0.21,0.06 -0.54,0.1 -0.74,0.09c-0.31,-0.03 -0.38,0.04 -0.42,0.38c-0.05,0.4 -0.37,0.55 -0.55,0.26c-0.27,-0.44 -2.69,0.21 -3.39,0.91c-0.47,0.47 -0.79,0.53 -1.21,0.2c-0.46,-0.35 -0.75,-0.26 -1.25,0.36c-0.27,0.34 -0.64,0.62 -0.89,0.68c-0.24,0.05 -0.51,0.19 -0.61,0.3c-0.09,0.12 -0.31,0.22 -0.48,0.22c-0.17,0 -0.45,0.17 -0.62,0.39c-0.27,0.33 -0.36,0.36 -0.63,0.22c-0.51,-0.27 -0.74,-0.2 -0.91,0.3c-0.15,0.42 -0.21,0.45 -0.68,0.38c-0.5,-0.08 -0.52,-0.07 -0.52,0.33c0,0.61 -0.35,0.85 -0.81,0.54c-0.51,-0.33 -1.31,-0.3 -1.64,0.05c-0.19,0.22 -0.49,0.31 -1.17,0.34c-0.77,0.04 -0.91,0.09 -0.96,0.34c-0.03,0.16 -0.2,0.45 -0.37,0.64c-0.25,0.28 -0.42,0.33 -0.82,0.27c-0.88,-0.14 -1.81,0.06 -1.97,0.42c-0.14,0.3 -1.42,0.76 -3.3,1.19c-0.24,0.05 -1.11,0.56 -1.94,1.12c-1.47,1.02 -2.14,1.25 -2.4,0.84c-0.06,-0.1 -0.17,-0.55 -0.23,-1c-0.06,-0.45 -0.15,-1.06 -0.2,-1.37c-0.14,-0.81 0.04,-1.56 0.42,-1.77c0.18,-0.1 0.66,-0.22 1.07,-0.26c0.63,-0.07 0.74,-0.13 0.82,-0.45c0.07,-0.32 0.18,-0.38 0.72,-0.42l0.63,-0.05l-0.47,-0.43c-0.44,-0.41 -0.54,-0.44 -1.73,-0.44c-1.11,0 -1.31,0.04 -1.68,0.36c-0.24,0.2 -0.72,0.39 -1.13,0.45c-0.39,0.06 -0.87,0.2 -1.06,0.32c-0.42,0.27 -0.82,0.16 -1.13,-0.32c-0.31,-0.47 -1.27,-0.53 -1.27,-0.08c0,0.28 -0.27,0.46 -0.69,0.46c-0.36,0 -1.53,-1.05 -1.53,-1.37c0,-0.25 -0.07,-0.28 -0.59,-0.19c-0.55,0.09 -0.6,0.07 -0.95,-0.47c-0.2,-0.31 -0.4,-0.8 -0.45,-1.09c-0.13,-0.72 -0.72,-1.04 -1.76,-0.94c-1.72,0.16 -1.74,0.17 -2.04,0.87c-0.37,0.86 -0.88,1.12 -1.97,1.01c-0.69,-0.07 -0.86,-0.04 -0.93,0.16c-0.19,0.49 -0.83,0.28 -1.62,-0.54c-0.41,-0.44 -0.99,-0.94 -1.3,-1.13c-0.31,-0.19 -0.56,-0.42 -0.56,-0.51c0,-0.09 0.15,-0.52 0.32,-0.94c0.18,-0.42 0.28,-0.87 0.23,-1c-0.11,-0.29 -0.98,-0.33 -1.05,-0.05c-0.03,0.1 -0.11,0.44 -0.18,0.76c-0.07,0.32 -0.21,0.61 -0.3,0.64c-0.09,0.03 -0.38,-0.13 -0.65,-0.35c-0.42,-0.36 -0.49,-0.38 -0.61,-0.15c-0.32,0.56 -1.32,0.68 -1.32,0.15c0,-0.16 -0.09,-0.19 -0.31,-0.12c-0.17,0.05 -0.46,0.02 -0.64,-0.08c-0.28,-0.15 -0.42,-0.12 -0.9,0.21c-0.31,0.21 -0.7,0.39 -0.87,0.41c-0.18,0.01 -0.48,0.04 -0.69,0.07c-2.08,0.25 -2.01,0.26 -2.35,-0.17c-0.17,-0.23 -0.32,-0.53 -0.32,-0.67c0,-0.34 -0.6,-0.5 -0.87,-0.22c-0.19,0.18 -0.17,0.25 0.13,0.49c0.34,0.27 0.35,0.31 0.19,1.45c-0.09,0.65 -0.13,1.38 -0.09,1.64c0.11,0.66 -0.08,0.7 -2.61,0.6c-0.59,-0.03 -0.67,0.01 -0.75,0.34c-0.09,0.33 -0.17,0.37 -0.72,0.35c-0.34,-0.02 -0.62,-0.01 -0.62,0.01c0,0.03 0.11,0.34 0.23,0.69c0.16,0.47 0.19,0.76 0.08,1.06c-0.09,0.25 -0.09,0.44 -0.01,0.49c0.08,0.05 0.14,0.29 0.14,0.53l0,0.44l1.63,-0.04c1.45,-0.03 1.67,0 2.04,0.28c0.37,0.27 0.42,0.41 0.45,1.29c0.03,0.54 0.07,0.98 0.09,0.98c0.03,0 0.25,-0.07 0.5,-0.15c0.36,-0.13 0.55,-0.11 0.91,0.07c0.96,0.5 0.88,1.12 -0.2,1.42c-0.6,0.17 -0.67,0.23 -0.67,0.62c0,0.45 -0.57,1.16 -0.92,1.16c-0.11,0 -0.28,0.13 -0.38,0.29c-0.1,0.16 -0.54,0.4 -1,0.53c-1.05,0.3 -1.33,0.69 -1.2,1.62c0.1,0.65 0.09,0.67 -0.5,1.06c-0.83,0.54 -0.75,0.85 0.23,0.95c1.18,0.12 1.28,0.27 1.23,1.77c-0.06,1.45 0.07,1.78 0.77,2.02c0.35,0.11 0.53,0.28 0.6,0.58c0.07,0.23 0.29,0.6 0.51,0.82c0.48,0.51 0.44,1.04 -0.08,1.2c-0.21,0.06 -0.69,0.15 -1.06,0.2c-1.03,0.14 -1.46,0.61 -1.46,1.57c0,0.71 -0.03,0.77 -0.45,0.93c-0.38,0.14 -0.44,0.24 -0.44,0.71c0,0.32 -0.13,0.7 -0.32,0.94c-0.29,0.37 -0.3,0.41 -0.06,0.91c0.14,0.29 0.23,0.7 0.2,0.92c-0.04,0.39 -0.08,0.4 -0.89,0.4c-0.6,0 -0.92,-0.08 -1.14,-0.27c-0.29,-0.27 -0.33,-0.26 -1.72,0.28c-1.08,0.43 -1.41,0.63 -1.41,0.84c0,0.42 -0.36,0.47 -1.02,0.13c-0.85,-0.43 -1.23,-0.4 -1.53,0.14c-0.3,0.53 -0.65,0.56 -1.46,0.14c-0.44,-0.22 -0.74,-0.27 -1.18,-0.2c-0.43,0.07 -0.7,0.03 -0.97,-0.15c-0.5,-0.33 -0.47,-0.46 0.19,-0.78c0.45,-0.22 0.54,-0.34 0.5,-0.64c-0.03,-0.21 -0.15,-0.49 -0.27,-0.63c-0.14,-0.15 -0.21,-0.43 -0.16,-0.7l0.06,-0.45l-0.75,0c-0.43,0 -0.88,0.1 -1.04,0.22c-0.39,0.29 -2.08,0.29 -2.92,-0.01c-0.52,-0.18 -0.79,-0.19 -1.38,-0.07c-0.41,0.09 -0.84,0.26 -0.97,0.37c-0.13,0.11 -0.53,0.23 -0.9,0.25c-0.63,0.05 -0.66,0.07 -0.63,0.48c0.03,0.53 0.72,1.28 1.16,1.28c0.18,0 0.7,0.2 1.16,0.44c0.45,0.25 1.02,0.45 1.25,0.45c0.54,0 0.77,0.24 0.77,0.81c0,0.39 0.08,0.48 0.47,0.6c0.45,0.14 0.77,0.51 0.44,0.51c-0.17,0 -1.5,0.87 -1.5,0.98c0,0.04 0.1,0.32 0.22,0.61c0.13,0.3 0.22,0.75 0.2,1c-0.03,0.46 0.06,0.85 0.35,1.6c0.13,0.34 0.25,0.41 0.65,0.41c0.37,0 0.56,0.1 0.74,0.38c0.21,0.31 0.33,0.36 0.73,0.28c0.53,-0.1 0.96,0.2 0.96,0.69c0,0.21 0.11,0.28 0.42,0.28c0.34,0 0.46,-0.1 0.68,-0.59c0.14,-0.33 0.39,-0.66 0.55,-0.75c0.38,-0.2 1.39,0.07 1.65,0.45c0.11,0.15 0.45,0.39 0.76,0.54c0.55,0.27 0.57,0.26 1.21,-0.08c0.87,-0.46 1.19,-0.34 1.04,0.4c-0.06,0.3 -0.16,0.92 -0.22,1.37c-0.06,0.45 -0.16,0.93 -0.22,1.06c-0.08,0.2 0.05,0.34 0.65,0.64c0.41,0.21 0.75,0.44 0.75,0.51c0,0.34 1.02,0.75 1.83,0.75c0.67,0 0.87,0.06 1.04,0.31c0.19,0.27 0.26,0.28 0.52,0.12c0.28,-0.17 0.36,-0.13 0.83,0.4c0.35,0.4 0.52,0.73 0.52,1.05c0.01,0.46 0.03,0.47 0.79,0.55c0.42,0.05 1.12,0.13 1.55,0.18c0.48,0.06 1.14,0.01 1.8,-0.14c0.58,-0.13 1.31,-0.24 1.64,-0.24c0.6,0 0.61,0 0.61,-0.57c0,-0.38 0.09,-0.66 0.29,-0.84c0.16,-0.15 0.3,-0.41 0.3,-0.59c0,-0.45 0.28,-0.67 0.83,-0.67c0.37,0 0.56,0.11 0.8,0.44c0.17,0.25 0.44,0.45 0.6,0.45c0.59,0 1.03,0.34 1.19,0.91c0.13,0.49 0.21,0.57 0.57,0.57c0.64,0 1.12,-0.46 1.16,-1.13c0.02,-0.32 0.08,-0.82 0.13,-1.13c0.08,-0.49 0.14,-0.56 0.5,-0.56c0.33,0 0.44,-0.08 0.52,-0.4c0.09,-0.36 0.96,-1.37 1.18,-1.37c0.05,0 0.15,0.16 0.23,0.37c0.08,0.2 0.26,0.37 0.41,0.37c0.15,0 0.52,0.12 0.82,0.28c0.46,0.23 0.58,0.24 0.81,0.07c0.49,-0.37 1.31,-0.15 1.13,0.32c-0.09,0.24 0.68,0.6 1.55,0.72c0.59,0.09 0.67,0.06 1.13,-0.43c0.54,-0.58 1.03,-0.66 1.3,-0.24c0.22,0.36 1.07,0.27 1.54,-0.15c0.54,-0.49 1.4,-0.28 1.4,0.34c0,0.44 0.23,0.43 1.05,-0.02c0.44,-0.25 0.95,-0.44 1.14,-0.45c0.89,0 4.33,-2.21 4.33,-2.78c0,-0.16 0.1,-0.19 0.41,-0.11c0.86,0.24 1,0.19 0.96,-0.32c-0.04,-0.63 0.3,-0.73 1.33,-0.39c1.09,0.37 1.16,0.43 1.16,1.04c0,0.35 0.11,0.66 0.31,0.87c0.28,0.3 0.29,0.4 0.15,0.82c-0.22,0.62 -0.21,0.72 0.05,0.72c0.26,0 1.39,1.07 1.76,1.67c0.17,0.28 0.38,0.41 0.64,0.41c0.47,0 1.67,-0.57 1.98,-0.93c0.12,-0.15 0.64,-0.35 1.14,-0.45c0.5,-0.1 1.05,-0.31 1.21,-0.45c0.17,-0.15 0.56,-0.36 0.87,-0.47c0.52,-0.18 0.57,-0.24 0.61,-0.8c0.04,-0.57 0.02,-0.61 -0.34,-0.61c-0.51,0 -0.6,-0.3 -0.35,-1.15c0.11,-0.39 0.18,-0.92 0.15,-1.18c-0.05,-0.45 -0.02,-0.49 0.4,-0.49c0.24,0 0.76,-0.07 1.16,-0.16c0.66,-0.15 0.77,-0.13 1.44,0.22c0.4,0.21 0.92,0.39 1.15,0.39c0.23,0 0.56,0.14 0.73,0.31c0.3,0.3 0.61,0.32 1.19,0.07c0.15,-0.06 0.34,0 0.49,0.14c0.21,0.21 0.21,0.3 0.04,0.64c-1.06,2.09 -1.05,2.89 0.08,3.42c0.35,0.17 0.74,0.36 0.86,0.43c0.57,0.33 1.22,0.62 1.37,0.62c0.09,0 0.31,0.14 0.5,0.31c0.28,0.27 0.36,0.29 0.64,0.11c0.29,-0.17 0.37,-0.15 0.77,0.3c0.46,0.51 0.81,0.54 1.17,0.09c0.1,-0.11 0.35,-0.21 0.55,-0.21c0.2,0 0.54,-0.14 0.74,-0.3c0.3,-0.23 0.6,-0.29 1.44,-0.29c1.14,0 1.36,0.11 1.79,0.84c0.38,0.64 0.89,0.71 1.51,0.21c0.28,-0.21 0.53,-0.5 0.58,-0.65c0.14,-0.42 0.48,-0.29 0.9,0.34c0.41,0.62 0.7,0.74 0.85,0.36c0.14,-0.37 0.11,-1.08 -0.06,-1.18c-0.27,-0.17 -0.15,-0.44 0.32,-0.71c0.39,-0.22 0.54,-0.23 1.04,-0.08c0.51,0.15 0.66,0.13 1.31,-0.17c0.66,-0.31 0.72,-0.37 0.57,-0.65c-0.14,-0.25 -0.1,-0.35 0.27,-0.64c0.23,-0.19 0.61,-0.34 0.83,-0.34c0.46,0 0.5,-0.14 0.19,-0.73c-0.33,-0.65 -0.11,-1.26 0.49,-1.32c0.41,-0.04 0.47,-0.11 0.47,-0.47c0,-0.59 0.44,-1.48 1,-2.03c0.27,-0.26 0.48,-0.57 0.48,-0.68c0,-0.12 0.17,-0.37 0.38,-0.56c0.45,-0.43 0.49,-1.2 0.09,-1.59c-0.43,-0.41 -0.79,-1.21 -0.74,-1.65c0.02,-0.22 -0.07,-0.56 -0.21,-0.76c-0.28,-0.4 -0.34,-1.21 -0.12,-1.62c0.12,-0.21 0.07,-0.31 -0.21,-0.46c-0.51,-0.27 -0.6,-0.62 -0.22,-0.92l0.31,-0.26l-0.58,-0.57c-0.54,-0.53 -0.58,-0.63 -0.67,-1.66c-0.05,-0.6 -0.06,-1.14 -0.02,-1.2c0.03,-0.05 0.29,-0.14 0.57,-0.2c0.46,-0.08 0.51,-0.15 0.63,-0.79c0.12,-0.67 0.15,-0.7 0.67,-0.75c0.42,-0.03 0.59,0.03 0.76,0.27c0.21,0.3 0.25,0.3 0.57,0.1c0.2,-0.13 0.6,-0.27 0.9,-0.33c0.31,-0.05 0.63,-0.19 0.73,-0.31c0.09,-0.11 0.32,-0.2 0.5,-0.2c0.18,0 0.5,-0.19 0.71,-0.41c0.21,-0.22 0.47,-0.48 0.58,-0.57c0.16,-0.12 0.17,-0.49 0.05,-1.88c-0.13,-1.46 -0.2,-1.77 -0.49,-2.07c-0.43,-0.46 -0.42,-0.82 0.04,-1.3c0.2,-0.21 0.41,-0.59 0.46,-0.85c0.08,-0.39 0.03,-0.5 -0.3,-0.72c-0.22,-0.14 -0.49,-0.48 -0.6,-0.75c-0.2,-0.47 -0.26,-0.5 -0.93,-0.5c-0.93,0 -1.32,-0.28 -1.45,-1.07c-0.1,-0.56 -0.07,-0.65 0.32,-0.96c0.23,-0.19 0.57,-0.34 0.75,-0.34c0.43,0 0.49,-0.26 0.44,-2.06c-0.04,-1.29 -0.09,-1.59 -0.34,-1.85c-0.7,-0.76 -1.38,-1.69 -1.58,-2.19c-0.16,-0.37 -0.35,-0.57 -0.63,-0.64c-0.23,-0.06 -0.58,-0.23 -0.78,-0.39c-0.2,-0.16 -0.45,-0.29 -0.54,-0.29c-0.29,0 -0.83,-0.66 -0.83,-1c0,-0.37 -0.74,-0.84 -1.32,-0.85c-0.29,0 -0.39,-0.11 -0.49,-0.52c-0.08,-0.29 -0.25,-0.64 -0.38,-0.78c-0.16,-0.19 -0.23,-0.54 -0.22,-1.23c0.01,-0.53 0,-0.95 -0.01,-0.95c-0.01,0.01 -0.35,0.14 -0.76,0.31l0.01,0z"/>
   <path  id="ernakulam"  d="m1031.83,260.17c-0.17,0.67 -0.38,1.69 -0.47,2.26c-0.09,0.57 -0.33,1.74 -0.53,2.59c-0.2,0.86 -0.44,2.12 -0.52,2.8c-0.14,1.16 -0.63,2.82 -1.24,4.25c-0.72,1.65 -0.97,2.66 -0.97,3.85c0,0.91 -0.07,1.34 -0.3,1.78c-0.36,0.72 -0.37,0.69 0.04,0.59c0.44,-0.11 0.98,0.28 0.78,0.57c-0.09,0.12 -0.28,0.39 -0.43,0.6c-0.15,0.22 -0.36,0.65 -0.47,0.95c-0.12,0.36 -0.28,0.56 -0.46,0.56c-0.61,0.02 -1.38,0.26 -1.58,0.49c-0.4,0.47 -0.71,1.55 -0.83,2.87c-0.08,0.83 -0.21,1.41 -0.35,1.57c-0.38,0.42 -1.82,4.46 -2.03,5.67c-0.3,1.73 -0.69,3.48 -1.13,5.04c-0.27,0.94 -0.6,2.18 -0.74,2.75c-0.26,1.06 -1.28,3.67 -1.58,4.03c-0.19,0.23 -0.2,0.21 0.52,0.7c0.31,0.21 0.72,0.38 0.9,0.38c0.19,0 0.59,0.17 0.89,0.37c0.45,0.31 0.71,0.36 1.64,0.36c1.38,-0.01 1.68,0.14 1.74,0.87l0.05,0.55l0.74,-0.03c0.41,-0.01 1.24,-0.1 1.86,-0.19c0.61,-0.08 1.41,-0.19 1.79,-0.24c0.6,-0.07 0.67,-0.12 0.62,-0.4c-0.1,-0.52 0.21,-1.12 0.74,-1.44c0.29,-0.17 0.64,-0.57 0.83,-0.96c0.37,-0.74 0.59,-0.81 1.46,-0.44c0.3,0.13 0.79,0.21 1.1,0.19c0.64,-0.03 1.02,0.22 1.02,0.7c0,0.32 0.03,0.33 0.45,0.17c0.33,-0.12 0.52,-0.12 0.7,0c0.28,0.17 0.31,0.54 0.13,1.85l-0.11,0.84l1.01,0.11c1.29,0.13 1.73,0.36 2.03,1.06c0.67,1.56 1.03,2.01 1.8,2.27c0.4,0.14 0.94,0.33 1.18,0.42c0.25,0.09 0.72,0.23 1.05,0.31c0.82,0.21 1.28,0.66 1.16,1.13c-0.07,0.3 -0.03,0.36 0.23,0.36c0.43,0 1.14,0.38 1.25,0.68c0.05,0.13 0.09,0.39 0.09,0.57c0,0.24 0.13,0.36 0.49,0.47c0.37,0.11 0.49,0.23 0.53,0.55c0.03,0.3 0.14,0.42 0.44,0.49c0.87,0.19 1.03,0.35 1.14,1.19c0.08,0.72 0.13,0.8 0.45,0.8c0.2,0 0.42,-0.13 0.51,-0.3c0.21,-0.38 0.6,-0.37 1.45,0.05c1.03,0.51 2.37,0.8 2.68,0.57c0.14,-0.09 0.35,-0.21 0.47,-0.26c0.12,-0.05 0.41,-0.18 0.63,-0.3c0.36,-0.2 0.51,-0.19 1.28,0.02c0.81,0.23 0.9,0.23 1.36,0c0.27,-0.14 0.89,-0.29 1.39,-0.34c0.58,-0.05 1.13,-0.21 1.55,-0.45l0.64,-0.37l0.92,0.47c0.89,0.45 1.87,0.61 2.27,0.35c0.1,-0.06 0.25,-0.3 0.33,-0.52c0.13,-0.34 0.24,-0.4 0.73,-0.4c0.36,0 0.73,0.11 0.97,0.31c0.33,0.25 0.44,0.28 0.62,0.12c0.19,-0.15 0.27,-0.14 0.46,0.05c0.26,0.25 0.16,0.56 -0.18,0.56c-0.23,0 -0.44,0.62 -0.32,0.94c0.1,0.26 0.86,0.41 1.46,0.29c0.34,-0.07 0.51,-0.22 0.67,-0.59c0.11,-0.27 0.37,-0.6 0.58,-0.74c0.21,-0.13 0.48,-0.44 0.6,-0.68c0.23,-0.44 0.24,-0.44 1.22,-0.34c0.98,0.09 0.99,0.09 1.23,-0.33c0.35,-0.63 1.35,-0.89 2.15,-0.56c0.31,0.13 0.78,0.43 1.02,0.66c0.44,0.41 1.35,0.67 1.67,0.48c0.09,-0.06 0.21,-0.29 0.26,-0.51c0.12,-0.47 0.31,-0.59 1.32,-0.84c0.4,-0.09 1.12,-0.34 1.59,-0.54l0.86,-0.36l0.82,0.31c0.45,0.17 0.85,0.36 0.9,0.44c0.05,0.07 0.77,0.09 1.68,0.04l1.61,-0.09l0.59,0.54c0.67,0.6 1.02,0.68 1.16,0.26c0.13,-0.44 0.76,-0.77 1.61,-0.86c0.63,-0.06 0.83,-0.02 1.17,0.25c0.22,0.17 0.41,0.41 0.41,0.53c0,0.15 0.18,0.21 0.63,0.22c0.35,0 0.88,0.06 1.18,0.13c0.33,0.07 0.53,0.07 0.48,-0.01c-0.05,-0.07 -0.02,-0.13 0.07,-0.13c0.08,0 0.32,0.24 0.54,0.52c0.34,0.45 0.48,0.52 1.01,0.52c0.9,-0.01 1.87,-0.49 1.87,-0.93c0,-0.71 0.7,-0.95 1.11,-0.37c0.12,0.18 0.23,0.47 0.23,0.65c0,0.18 0.1,0.36 0.23,0.41c0.34,0.13 0.36,0.12 0.36,-0.22c0,-0.27 0.07,-0.3 0.78,-0.26c0.67,0.05 0.78,0.02 0.76,-0.21c-0.04,-0.4 1.01,-0.88 1.78,-0.83l0.61,0.05l0.09,-0.65c0.11,-0.81 0.46,-1.1 1.2,-0.99c0.29,0.05 0.65,0.13 0.77,0.18c0.16,0.06 0.24,0 0.24,-0.16c0,-0.13 0.2,-0.36 0.44,-0.5c0.38,-0.21 0.45,-0.34 0.45,-0.85c0,-0.48 0.1,-0.72 0.5,-1.15c0.65,-0.71 1.33,-0.74 2.67,-0.1c0.51,0.24 1.05,0.44 1.19,0.44c0.15,0 0.53,-0.27 0.85,-0.59c0.33,-0.33 0.64,-0.58 0.69,-0.55c0.06,0.02 0.29,0.13 0.51,0.24c0.28,0.14 0.46,0.16 0.59,0.06c0.11,-0.09 0.37,-0.2 0.58,-0.25c0.22,-0.05 0.43,-0.22 0.47,-0.39c0.05,-0.2 0.2,-0.3 0.46,-0.3c0.23,0 0.46,-0.12 0.57,-0.29c0.3,-0.49 0.81,-0.37 1.27,0.29c0.3,0.43 0.5,0.58 0.77,0.56c0.67,-0.03 1.04,0.17 1.04,0.57c0,0.22 0.11,0.4 0.26,0.45c0.57,0.18 0.93,0.41 0.93,0.6c0,0.11 0.12,0.2 0.27,0.2c0.15,0 0.59,0.23 0.96,0.52c0.44,0.33 0.96,0.57 1.46,0.67c0.42,0.08 0.89,0.25 1.03,0.38c0.33,0.29 0.68,0.12 1.22,-0.59c0.44,-0.58 0.52,-1.35 0.19,-1.8c-0.16,-0.23 -0.48,-0.3 -1.67,-0.38c-1.76,-0.13 -3.46,-0.62 -3.46,-1c0,-0.14 0.1,-0.4 0.22,-0.58c0.12,-0.17 0.24,-0.47 0.27,-0.66c0.03,-0.26 0.27,-0.46 0.94,-0.79c0.5,-0.25 1.02,-0.54 1.15,-0.65c0.19,-0.17 0.32,-0.17 0.62,-0.04c0.2,0.09 0.49,0.17 0.64,0.17c0.14,0 0.39,0.14 0.54,0.3c0.21,0.23 0.42,0.3 0.88,0.26l0.6,-0.04l0,-0.67l0,-0.67l0.7,-0.04c0.39,-0.03 0.71,-0.12 0.71,-0.21c0,-0.09 0.3,-0.45 0.67,-0.8c0.54,-0.51 0.67,-0.73 0.63,-1.05c-0.04,-0.41 -0.07,-0.42 -1.23,-0.5c-0.65,-0.05 -1.3,-0.14 -1.45,-0.2c-0.2,-0.1 -0.26,-0.05 -0.26,0.23c0,0.19 -0.06,0.44 -0.12,0.54c-0.13,0.21 -0.22,0.19 -2.48,-0.52c-0.87,-0.27 -1.49,-0.17 -1.62,0.26c-0.13,0.39 -0.47,0.37 -1.05,-0.08c-0.28,-0.21 -0.69,-0.37 -0.96,-0.37c-0.6,0 -1.03,-0.24 -1.03,-0.57c0,-0.14 -0.08,-0.34 -0.18,-0.44c-0.21,-0.21 -1.16,-0.24 -1.16,-0.04c0,0.22 -0.44,0.6 -0.68,0.6c-0.12,0 -0.37,-0.15 -0.55,-0.35c-0.5,-0.53 -0.97,-0.63 -1.24,-0.25c-0.12,0.17 -0.38,0.31 -0.59,0.31c-0.21,0 -0.57,0.16 -0.8,0.35c-0.31,0.26 -0.68,0.38 -1.45,0.45c-0.74,0.07 -1.11,0.18 -1.29,0.39c-0.31,0.34 -1.28,0.4 -1.53,0.11c-0.08,-0.11 -0.2,-0.39 -0.26,-0.64c-0.06,-0.24 -0.43,-0.77 -0.83,-1.17c-0.39,-0.41 -0.72,-0.86 -0.72,-1c0,-0.15 -0.06,-0.27 -0.13,-0.27c-0.08,0 -0.19,-0.32 -0.25,-0.71c-0.08,-0.57 -0.22,-0.81 -0.73,-1.29c-0.35,-0.33 -0.77,-0.88 -0.95,-1.22c-0.17,-0.34 -0.68,-0.99 -1.13,-1.44c-0.5,-0.5 -0.96,-1.14 -1.2,-1.67c-0.2,-0.47 -0.5,-1.03 -0.66,-1.25c-0.17,-0.24 -0.28,-0.65 -0.28,-1.01c0,-0.68 -0.07,-0.72 -0.6,-0.31c-0.2,0.16 -0.49,0.29 -0.65,0.29c-0.15,0.01 -0.67,0.25 -1.16,0.55c-1.21,0.73 -2.01,0.82 -2.71,0.28c-0.46,-0.35 -0.52,-0.47 -0.52,-1.08c0,-0.5 0.1,-0.81 0.37,-1.17c0.48,-0.62 0.47,-0.71 -0.07,-0.6c-0.34,0.07 -0.48,0.03 -0.6,-0.2c-0.21,-0.4 -0.89,-0.4 -0.89,-0.01c0,0.16 0.07,0.33 0.15,0.38c0.39,0.24 -0.01,0.34 -1.82,0.43c-2.02,0.11 -2.48,0.05 -2.48,-0.28c0,-0.23 0.69,-0.72 1.18,-0.82c0.27,-0.05 0.42,-0.24 0.61,-0.8c0.22,-0.64 0.35,-0.78 0.97,-1.09c0.4,-0.19 0.98,-0.4 1.29,-0.45c0.31,-0.06 0.56,-0.17 0.57,-0.25c0.01,-0.31 0.33,-0.52 0.79,-0.52c0.27,0 0.65,-0.13 0.86,-0.3c0.21,-0.16 0.49,-0.29 0.64,-0.29c0.14,0 0.21,-0.05 0.16,-0.1c-0.06,-0.06 -0.01,-0.21 0.11,-0.34c0.12,-0.13 0.26,-0.41 0.31,-0.64c0.1,-0.37 0.07,-0.41 -0.34,-0.41c-0.44,0 -2.61,1.29 -2.72,1.62c-0.03,0.1 -0.32,0.21 -0.65,0.27c-0.32,0.05 -0.67,0.2 -0.76,0.32c-0.22,0.3 -1.26,0.31 -1.6,0.03c-0.35,-0.3 -1.5,-1.83 -1.79,-2.39c-0.23,-0.45 -0.23,-0.52 0.01,-1.04c0.27,-0.62 0.22,-1.06 -0.19,-1.58c-0.26,-0.32 -0.29,-0.33 -0.92,-0.11c-0.61,0.22 -0.7,0.21 -1.36,-0.07c-0.39,-0.17 -0.87,-0.31 -1.06,-0.31c-0.19,0 -0.49,-0.1 -0.66,-0.22c-0.29,-0.2 -0.33,-0.19 -0.55,0.15c-0.33,0.49 -0.47,0.47 -1.14,-0.2c-0.68,-0.68 -0.87,-1.26 -0.52,-1.64c0.13,-0.14 0.24,-0.36 0.24,-0.47c0,-0.11 0.27,-0.49 0.62,-0.84l0.62,-0.63l-0.57,0.02c-0.43,0.02 -0.64,-0.06 -0.85,-0.32c-0.24,-0.3 -0.25,-0.38 -0.07,-0.65c0.27,-0.42 0.15,-0.69 -0.29,-0.69c-0.25,0 -0.45,-0.14 -0.61,-0.42c-0.22,-0.38 -0.31,-0.42 -0.8,-0.36c-0.48,0.07 -0.63,0.01 -1.01,-0.37c-0.25,-0.25 -0.46,-0.53 -0.46,-0.61c0,-0.09 0.27,-0.33 0.59,-0.53c0.89,-0.56 0.99,-1.27 0.17,-1.27c-0.31,0 -0.5,0.14 -0.77,0.56c-0.29,0.46 -0.46,0.56 -0.92,0.6c-0.3,0.03 -0.76,-0.05 -1,-0.17c-0.42,-0.21 -0.48,-0.21 -0.98,0.13c-0.3,0.2 -0.75,0.37 -1,0.37c-0.56,0 -1.99,-0.51 -2.3,-0.81c-0.13,-0.13 -0.26,-0.69 -0.33,-1.37c-0.06,-0.64 -0.16,-1.37 -0.21,-1.63c-0.08,-0.4 -0.04,-0.51 0.36,-0.8c0.52,-0.38 0.57,-0.69 0.23,-1.34c-0.16,-0.31 -0.2,-0.64 -0.13,-1.1c0.13,-0.85 0.01,-1.02 -0.5,-0.75c-0.34,0.17 -0.46,0.17 -0.77,0c-0.2,-0.11 -0.55,-0.2 -0.78,-0.21c-0.61,0 -0.84,-0.58 -0.51,-1.27c0.29,-0.6 0.09,-0.69 -0.45,-0.19c-0.32,0.31 -0.39,0.32 -1.23,0.15c-0.64,-0.14 -0.97,-0.14 -1.18,-0.03c-0.21,0.12 -0.39,0.12 -0.59,0c-0.25,-0.13 -0.3,-0.31 -0.3,-1.15c0,-0.55 -0.01,-1.18 -0.01,-1.41l0,-0.42l-0.57,0.32l-0.56,0.32l-0.66,-0.42c-0.85,-0.55 -0.88,-0.61 -0.83,-1.39l0.04,-0.67l-0.56,-0.04c-0.44,-0.04 -0.56,0 -0.56,0.2c0,0.13 -0.17,0.62 -0.38,1.09c-0.5,1.08 -1.26,1.57 -2.2,1.43l-0.63,-0.09l-0.18,1c-0.1,0.56 -0.22,1.27 -0.26,1.58l-0.09,0.58l-0.67,-0.09c-0.37,-0.05 -1.07,-0.1 -1.55,-0.1c-0.76,0 -0.9,-0.04 -0.96,-0.29c-0.09,-0.32 -0.27,-0.39 -0.42,-0.15c-0.18,0.29 -0.67,0.15 -0.81,-0.22c-0.17,-0.45 -0.43,-0.47 -1.2,-0.07c-0.7,0.36 -0.92,0.28 -1.92,-0.68c-0.37,-0.36 -1,-0.79 -1.41,-0.97c-0.4,-0.18 -0.9,-0.45 -1.09,-0.6c-0.52,-0.4 -1.57,-0.37 -2,0.06c-0.41,0.41 -1.38,0.68 -1.92,0.54c-0.47,-0.13 -0.48,-0.11 -0.62,0.72c-0.13,0.79 -0.51,0.92 -1.46,0.5l-0.67,-0.29l-0.33,0.35c-0.28,0.3 -0.3,0.41 -0.17,0.77c0.42,1.08 0.39,1.33 -0.25,2.05c-0.32,0.38 -0.67,0.93 -0.77,1.23c-0.09,0.3 -0.24,0.63 -0.33,0.73c-0.19,0.25 -1.23,0.15 -1.86,-0.18c-0.26,-0.14 -0.82,-0.23 -1.35,-0.23c-0.73,0 -0.93,0.05 -1.08,0.29c-0.11,0.19 -0.34,0.3 -0.6,0.3c-0.51,0 -1,0.24 -1.27,0.63c-0.16,0.22 -0.35,0.27 -0.89,0.23l-0.69,-0.04l-0.04,-1.48c-0.04,-1.18 0.01,-1.58 0.21,-1.96c0.34,-0.62 0.11,-1.19 -0.5,-1.26c-0.36,-0.04 -0.44,-0.15 -0.63,-0.87c-0.13,-0.45 -0.38,-1.01 -0.56,-1.25c-0.55,-0.68 -0.45,-1.3 0.33,-2.14c0.76,-0.81 0.83,-1.05 0.32,-1.05c-0.2,0 -0.44,-0.1 -0.54,-0.23c-0.1,-0.12 -0.23,-0.22 -0.29,-0.22c-0.06,0 -0.25,0.55 -0.42,1.22l-0.01,0.01z"/>
   <path  id="Kozhikode" d="m978.38,416.65c-0.09,0.1 -0.32,0.55 -0.52,1c-0.2,0.44 -0.67,1.12 -1.05,1.51c-0.54,0.55 -0.76,0.93 -0.98,1.71c-0.54,1.82 -0.78,2.46 -1.13,2.97c-0.19,0.28 -0.34,0.61 -0.34,0.72c0,0.12 -0.14,0.49 -0.31,0.83c-0.32,0.66 -1.03,2.72 -1.03,3.02c0,0.1 -0.2,0.63 -0.45,1.19c-0.48,1.06 -0.78,2.03 -1.1,3.53c-0.19,0.91 -0.49,1.74 -1.18,3.19c-0.21,0.45 -0.38,0.99 -0.39,1.19c-0.01,0.65 -0.47,1.37 -0.99,1.55c-0.9,0.3 -1,0.52 -1.01,2.2c0,1.37 -0.04,1.58 -0.4,2.24c-0.23,0.4 -0.41,0.89 -0.41,1.08c0,0.38 -1.05,2.44 -1.5,2.94c-0.15,0.17 -0.43,0.67 -0.63,1.13c-0.2,0.45 -0.94,1.7 -1.64,2.78c-0.7,1.07 -1.31,2.12 -1.36,2.32c-0.1,0.42 -0.58,0.82 -0.97,0.82c-0.14,0 -0.38,0.23 -0.55,0.51c-0.23,0.39 -0.43,0.53 -0.87,0.6c-0.31,0.05 -0.87,0.26 -1.25,0.45c-0.84,0.44 -0.99,0.45 -1.85,0.04c-0.72,-0.33 -0.94,-0.25 -0.95,0.35c0,0.29 -0.64,0.83 -1.12,0.95c-0.3,0.08 -0.32,0.13 -0.18,0.53c0.21,0.62 -0.17,1.89 -1.14,3.84c-0.44,0.85 -0.93,2.05 -1.11,2.66c-0.45,1.52 -1.03,3.14 -1.21,3.36c-0.08,0.09 -0.28,0.63 -0.43,1.19c-0.16,0.56 -0.34,1.11 -0.39,1.24c-0.2,0.47 -0.82,2.18 -1.04,2.89c-0.12,0.41 -0.38,1.07 -0.57,1.48c-0.19,0.41 -0.46,1.06 -0.6,1.45c-0.14,0.39 -0.32,0.75 -0.39,0.79c-0.07,0.04 -0.12,0.23 -0.12,0.41c0,0.18 -0.13,0.56 -0.28,0.84c-0.15,0.28 -0.32,0.73 -0.38,0.98c-0.05,0.25 -0.26,0.62 -0.46,0.8c-0.2,0.19 -0.37,0.42 -0.37,0.51c-0.01,0.38 -1.06,2.68 -1.55,3.35l-0.53,0.74l0.38,0.17c0.3,0.14 0.42,0.12 0.64,-0.08c0.15,-0.13 0.48,-0.24 0.73,-0.24c0.32,0 0.49,-0.09 0.55,-0.28c0.05,-0.16 0.29,-0.37 0.54,-0.47c0.42,-0.18 0.45,-0.24 0.37,-0.73c-0.11,-0.72 0.29,-1.35 1.11,-1.76c0.64,-0.32 0.64,-0.32 0.96,-0.02c0.17,0.16 0.38,0.29 0.48,0.29c0.09,0 0.32,0.2 0.5,0.45c0.27,0.36 0.44,0.44 0.9,0.44c0.8,0 1.45,0.36 1.45,0.8c0,0.36 -0.25,0.54 -0.75,0.54c-0.29,0 -0.33,0.1 -0.51,1.2c-0.07,0.49 -0.05,0.55 0.29,0.63c0.21,0.06 0.38,0.2 0.38,0.32c0,0.13 0.14,0.22 0.37,0.22c0.2,0 0.49,0.12 0.63,0.26c0.15,0.15 0.58,0.39 0.97,0.53c0.85,0.33 1.19,0.64 1.09,1.02c-0.09,0.35 0.37,0.55 1.03,0.45c0.37,-0.05 0.52,0.01 0.76,0.32c0.17,0.21 0.55,0.49 0.85,0.62c0.37,0.15 0.52,0.29 0.47,0.44c-0.05,0.12 -0.02,0.21 0.06,0.21c0.08,0 0.29,0.17 0.47,0.38c0.17,0.2 0.48,0.37 0.67,0.37c0.69,0 0.93,0.25 0.93,0.97c0,0.58 0.04,0.66 0.33,0.66c0.19,0 0.71,0.19 1.15,0.41c0.77,0.38 0.82,0.44 0.87,1c0.02,0.32 0.11,0.65 0.18,0.73c0.08,0.08 0.14,0.43 0.14,0.78c0,0.74 0.11,0.77 1.27,0.42c0.41,-0.13 0.97,-0.23 1.27,-0.23c0.65,0 0.94,-0.29 1.3,-1.31c0.14,-0.42 0.3,-0.8 0.35,-0.85c0.13,-0.13 1.45,0.49 1.45,0.69c0,0.11 0.15,0.14 0.48,0.08c1.43,-0.29 2.12,0.19 1.51,1.06c-0.13,0.18 -0.32,0.33 -0.42,0.33c-0.11,0 -0.3,0.13 -0.44,0.28c-0.4,0.44 0.01,0.68 0.98,0.55c2.47,-0.32 2.46,-0.31 2.78,-0.72c0.18,-0.22 0.44,-0.4 0.59,-0.4c0.34,0 0.54,-0.25 0.66,-0.84c0.08,-0.37 0.04,-0.53 -0.21,-0.77c-0.19,-0.17 -0.35,-0.55 -0.4,-0.94c-0.06,-0.45 -0.2,-0.74 -0.47,-0.96l-0.39,-0.32l0.35,-0.38c0.2,-0.21 0.6,-0.41 0.93,-0.47c0.88,-0.15 1.32,-0.96 0.52,-0.96c-0.19,0 -0.46,-0.09 -0.62,-0.21c-0.25,-0.18 -0.14,-0.22 1.01,-0.31c1.13,-0.1 1.37,-0.17 1.85,-0.55c0.31,-0.24 0.61,-0.57 0.67,-0.74c0.06,-0.16 0.24,-0.33 0.4,-0.37c0.16,-0.04 0.32,-0.26 0.38,-0.51c0.08,-0.35 0.17,-0.43 0.53,-0.43c0.9,0 1.47,-0.53 1.83,-1.73c0.05,-0.18 0.21,-0.36 0.35,-0.4c0.74,-0.21 1.25,-0.23 2.25,-0.1c0.88,0.11 1.14,0.1 1.22,-0.05c0.07,-0.13 0.6,-0.23 1.49,-0.3c1.14,-0.09 1.47,-0.17 1.97,-0.5c0.86,-0.58 1.06,-0.92 0.52,-0.92c-0.15,0 -0.33,-0.07 -0.38,-0.15c-0.05,-0.08 -0.32,-0.25 -0.61,-0.37c-0.48,-0.2 -0.51,-0.26 -0.42,-0.67c0.05,-0.24 0.2,-0.66 0.33,-0.92c0.22,-0.43 0.22,-0.55 -0.01,-1.44c-0.14,-0.54 -0.35,-1.04 -0.46,-1.13c-0.15,-0.11 -0.21,-0.56 -0.21,-1.7c-0.01,-1.52 0.01,-1.57 0.42,-2c0.24,-0.25 0.49,-0.71 0.56,-1.03c0.06,-0.31 0.21,-0.62 0.33,-0.68c0.12,-0.06 0.39,-0.19 0.59,-0.28c0.21,-0.09 0.64,-0.36 0.97,-0.6c0.4,-0.3 0.77,-0.44 1.15,-0.44c0.47,-0.01 0.58,-0.07 0.71,-0.41c0.21,-0.54 0.38,-0.63 1.18,-0.64l0.68,0l0.19,-0.92c0.1,-0.51 0.22,-1.08 0.25,-1.26c0.04,-0.19 0.33,-0.49 0.7,-0.7c0.34,-0.2 0.79,-0.62 1,-0.93c0.84,-1.26 1.17,-1.53 1.86,-1.53c0.63,0 0.67,-0.02 1.09,-0.78c0.58,-1.03 0.7,-1.14 1.17,-1.15c0.22,0 0.62,-0.13 0.88,-0.29c0.27,-0.16 0.67,-0.3 0.89,-0.3c0.63,-0.01 1.74,-0.76 1.74,-1.2c0,-0.33 0.06,-0.35 0.67,-0.32c1.45,0.07 2.23,0.21 2.23,0.42c0,0.11 0.16,0.29 0.36,0.39c0.19,0.11 0.6,0.51 0.89,0.9c0.52,0.67 0.82,0.79 0.82,0.32c0,-0.11 0.27,-0.38 0.59,-0.58c0.65,-0.41 0.86,-0.92 0.77,-1.87c-0.04,-0.44 -0.12,-0.58 -0.33,-0.58c-0.52,0 -0.45,-0.3 0.21,-0.97c0.69,-0.68 1.06,-0.79 1.78,-0.52c0.43,0.16 0.59,0.02 0.75,-0.64c0.09,-0.38 0.15,-0.41 0.72,-0.37c0.56,0.05 0.64,0.01 0.82,-0.36c0.11,-0.22 0.38,-0.52 0.59,-0.66c0.22,-0.15 0.72,-0.57 1.12,-0.95l0.72,-0.68l-0.23,-0.46c-0.32,-0.61 -0.3,-1.26 0.04,-1.57c0.38,-0.34 0.5,-1.27 0.16,-1.27c-0.14,0 -0.37,0.13 -0.51,0.29c-0.41,0.45 -0.72,0.36 -1.26,-0.36c-0.27,-0.36 -0.58,-0.69 -0.69,-0.74c-0.11,-0.04 -0.2,-0.17 -0.2,-0.29c0,-0.33 -0.24,-0.41 -0.66,-0.22c-0.52,0.24 -1,-0.16 -0.88,-0.74c0.06,-0.33 0.01,-0.42 -0.36,-0.56c-0.46,-0.17 -0.47,-0.21 -0.72,-1.88c-0.05,-0.34 -0.02,-0.64 0.08,-0.74c0.09,-0.09 0.16,-0.41 0.16,-0.72c0,-0.46 -0.08,-0.62 -0.46,-0.9c-0.67,-0.49 -0.78,-0.9 -0.44,-1.65c0.37,-0.81 0.98,-1.43 1.41,-1.43c0.73,0 1.29,-0.18 1.21,-0.4c-0.05,-0.12 0.02,-0.45 0.14,-0.74c0.12,-0.29 0.22,-0.75 0.22,-1.03c0,-0.46 -0.04,-0.5 -0.46,-0.5c-0.25,0 -0.6,-0.08 -0.77,-0.17c-0.18,-0.1 -0.82,-0.19 -1.42,-0.21c-1.14,-0.04 -1.35,-0.15 -1.36,-0.73c0,-0.2 -0.26,-0.45 -0.78,-0.75c-0.73,-0.43 -0.77,-0.48 -0.72,-1c0.04,-0.48 0.01,-0.55 -0.27,-0.55c-0.54,0 -1.18,-0.43 -1.3,-0.86c-0.06,-0.23 -0.4,-0.67 -0.75,-0.98c-0.51,-0.47 -0.67,-0.54 -0.84,-0.39c-0.16,0.13 -0.62,0.15 -1.67,0.08c-1.81,-0.12 -1.89,-0.15 -2.1,-0.61c-0.15,-0.32 -0.24,-0.36 -0.61,-0.28c-0.35,0.07 -0.52,0.02 -0.82,-0.29c-0.21,-0.21 -0.41,-0.38 -0.45,-0.38c-0.03,0 -0.46,0.4 -0.95,0.89c-0.48,0.49 -0.98,0.89 -1.11,0.89c-0.33,0 -1.74,-1.19 -2.15,-1.82c-0.31,-0.49 -0.43,-0.55 -0.96,-0.56c-1.02,0 -3.02,-0.38 -3.42,-0.64c-0.21,-0.14 -0.38,-0.38 -0.38,-0.54c0,-0.24 -0.1,-0.3 -0.57,-0.3c-0.34,0 -0.65,0.1 -0.77,0.24c-0.64,0.77 -1.29,0.54 -1.35,-0.49c-0.05,-0.68 -0.07,-0.71 -0.57,-0.8c-0.45,-0.08 -0.98,-0.29 -1.78,-0.71c-0.12,-0.07 -0.24,-0.25 -0.27,-0.41c-0.02,-0.17 -0.34,-0.59 -0.7,-0.94c-0.62,-0.61 -0.67,-0.64 -1.03,-0.45c-0.47,0.26 -0.83,0.01 -0.53,-0.35c0.1,-0.12 0.21,-0.58 0.26,-1.01c0.08,-0.77 0.1,-0.8 0.65,-0.98c0.32,-0.1 0.7,-0.18 0.85,-0.18c0.16,0 0.4,-0.13 0.55,-0.3c0.2,-0.22 0.39,-0.28 0.68,-0.21c0.33,0.07 0.41,0.03 0.47,-0.26c0.04,-0.18 0.12,-0.45 0.17,-0.58c0.08,-0.17 -0.03,-0.34 -0.37,-0.58c-0.39,-0.28 -0.52,-0.31 -0.75,-0.16c-0.16,0.09 -0.57,0.21 -0.92,0.26c-0.58,0.08 -0.68,0.05 -0.96,-0.32c-0.18,-0.22 -0.32,-0.6 -0.32,-0.83c0,-0.31 -0.08,-0.43 -0.27,-0.43c-0.54,0 -0.86,-0.73 -0.42,-0.99c0.23,-0.14 0.54,-0.68 0.54,-0.94c0,-0.12 -0.12,-0.1 -0.37,0.06c-0.48,0.32 -0.76,0.3 -1.24,-0.06c-0.42,-0.32 -1.95,-1.33 -2.02,-1.33c-0.02,0 -0.12,0.09 -0.21,0.2z"/>
  </g>
</svg>